ISO-10303-21;
HEADER;
FILE_DESCRIPTION((''),'2;1');
FILE_NAME('PRT0004','2026-04-14T14:26:13',('Admin'),('WUJI'),
'CREO PARAMETRIC BY PTC INC, 2025102','CREO PARAMETRIC BY PTC INC, 2025102','');
FILE_SCHEMA(('AUTOMOTIVE_DESIGN { 1 0 10303 214 1 1 1 1 }'));
ENDSEC;
DATA;
#31=CARTESIAN_POINT('',(0.E0,0.E0,0.E0));
#32=DIRECTION('',(0.E0,1.E0,0.E0));
#33=DIRECTION('',(-1.E0,0.E0,0.E0));
#34=AXIS2_PLACEMENT_3D('',#31,#32,#33);
#36=CARTESIAN_POINT('',(0.E0,0.E0,0.E0));
#37=DIRECTION('',(0.E0,1.E0,0.E0));
#38=DIRECTION('',(1.E0,0.E0,0.E0));
#39=AXIS2_PLACEMENT_3D('',#36,#37,#38);
#41=CARTESIAN_POINT('',(0.E0,0.E0,0.E0));
#42=DIRECTION('',(0.E0,-1.E0,0.E0));
#43=DIRECTION('',(1.E0,0.E0,0.E0));
#44=AXIS2_PLACEMENT_3D('',#41,#42,#43);
#46=CARTESIAN_POINT('',(0.E0,0.E0,0.E0));
#47=DIRECTION('',(0.E0,-1.E0,0.E0));
#48=DIRECTION('',(-1.E0,0.E0,0.E0));
#49=AXIS2_PLACEMENT_3D('',#46,#47,#48);
#51=CARTESIAN_POINT('',(1.065814103640E-14,0.E0,0.E0));
#52=DIRECTION('',(0.E0,1.E0,0.E0));
#53=DIRECTION('',(-1.E0,0.E0,0.E0));
#54=AXIS2_PLACEMENT_3D('',#51,#52,#53);
#56=CARTESIAN_POINT('',(1.065814103640E-14,0.E0,0.E0));
#57=DIRECTION('',(0.E0,1.E0,0.E0));
#58=DIRECTION('',(1.E0,0.E0,0.E0));
#59=AXIS2_PLACEMENT_3D('',#56,#57,#58);
#61=CARTESIAN_POINT('',(0.E0,0.E0,-1.440184635797E-13));
#62=DIRECTION('',(0.E0,-1.E0,0.E0));
#63=DIRECTION('',(1.E0,0.E0,0.E0));
#64=AXIS2_PLACEMENT_3D('',#61,#62,#63);
#66=CARTESIAN_POINT('',(0.E0,0.E0,0.E0));
#67=DIRECTION('',(0.E0,-1.E0,0.E0));
#68=DIRECTION('',(-1.E0,0.E0,0.E0));
#69=AXIS2_PLACEMENT_3D('',#66,#67,#68);
#71=DIRECTION('',(7.071067811865E-1,7.071067811865E-1,4.368724182795E-8));
#72=VECTOR('',#71,7.071067731505E-1);
#73=CARTESIAN_POINT('',(-3.399999984229E0,1.577135784932E-8,
-8.573979724829E-8));
#74=LINE('',#73,#72);
#75=DIRECTION('',(-7.071067811865E-1,7.071067811865E-1,-4.368724156243E-8));
#76=VECTOR('',#75,7.071067731505E-1);
#77=CARTESIAN_POINT('',(3.399999984229E0,1.577135829341E-8,8.573979771290E-8));
#78=LINE('',#77,#76);
#79=CARTESIAN_POINT('',(0.E0,9.5E0,0.E0));
#80=DIRECTION('',(0.E0,-1.E0,0.E0));
#81=DIRECTION('',(-1.E0,0.E0,0.E0));
#82=AXIS2_PLACEMENT_3D('',#79,#80,#81);
#84=DIRECTION('',(0.E0,-1.E0,0.E0));
#85=VECTOR('',#84,8.999999979822E0);
#86=CARTESIAN_POINT('',(2.899999989911E0,9.499999989911E0,5.484825302205E-8));
#87=LINE('',#86,#85);
#88=CARTESIAN_POINT('',(0.E0,5.E-1,0.E0));
#89=DIRECTION('',(0.E0,1.E0,0.E0));
#90=DIRECTION('',(1.E0,0.E0,0.E0));
#91=AXIS2_PLACEMENT_3D('',#88,#89,#90);
#93=DIRECTION('',(0.E0,1.E0,0.E0));
#94=VECTOR('',#93,8.999999979822E0);
#95=CARTESIAN_POINT('',(-2.899999989911E0,5.000000100890E-1,
-5.484825265148E-8));
#96=LINE('',#95,#94);
#97=DIRECTION('',(7.071067811865E-1,-7.071067811865E-1,4.368724140339E-8));
#98=VECTOR('',#97,7.071067731505E-1);
#99=CARTESIAN_POINT('',(-3.399999984229E0,9.999999984229E0,-8.573979690790E-8));
#100=LINE('',#99,#98);
#101=CARTESIAN_POINT('',(0.E0,1.E1,-3.662807510308E-14));
#102=DIRECTION('',(0.E0,1.E0,0.E0));
#103=DIRECTION('',(-1.E0,0.E0,0.E0));
#104=AXIS2_PLACEMENT_3D('',#101,#102,#103);
#106=CARTESIAN_POINT('',(0.E0,1.E1,2.663606788145E-14));
#107=DIRECTION('',(0.E0,1.E0,0.E0));
#108=DIRECTION('',(1.E0,0.E0,0.E0));
#109=AXIS2_PLACEMENT_3D('',#106,#107,#108);
#111=CARTESIAN_POINT('',(0.E0,1.E1,0.E0));
#112=DIRECTION('',(0.E0,-1.E0,0.E0));
#113=DIRECTION('',(1.E0,0.E0,0.E0));
#114=AXIS2_PLACEMENT_3D('',#111,#112,#113);
#116=CARTESIAN_POINT('',(0.E0,1.E1,0.E0));
#117=DIRECTION('',(0.E0,-1.E0,0.E0));
#118=DIRECTION('',(-1.E0,0.E0,0.E0));
#119=AXIS2_PLACEMENT_3D('',#116,#117,#118);
#121=DIRECTION('',(-7.071067811865E-1,-7.071067811865E-1,-3.387007936182E-9));
#122=VECTOR('',#121,7.071067814708E-1);
#123=CARTESIAN_POINT('',(-1.449999999910E1,1.000000000090E1,1.068527917597E-8));
#124=LINE('',#123,#122);
#125=DIRECTION('',(7.071067811865E-1,-7.071067811865E-1,3.387014290318E-9));
#126=VECTOR('',#125,7.071067814708E-1);
#127=CARTESIAN_POINT('',(1.449999999910E1,1.000000000090E1,-1.068528487511E-8));
#128=LINE('',#127,#126);
#129=CARTESIAN_POINT('',(0.E0,9.5E0,0.E0));
#130=DIRECTION('',(0.E0,1.E0,0.E0));
#131=DIRECTION('',(1.E0,0.E0,0.E0));
#132=AXIS2_PLACEMENT_3D('',#129,#130,#131);
#134=DIRECTION('',(-4.637901912218E-10,1.E0,-5.526870623078E-9));
#135=VECTOR('',#134,1.500000000696E0);
#136=CARTESIAN_POINT('',(1.5E1,8.E0,0.E0));
#137=LINE('',#136,#135);
#138=CARTESIAN_POINT('',(0.E0,9.5E0,0.E0));
#139=DIRECTION('',(0.E0,1.E0,0.E0));
#140=DIRECTION('',(-1.E0,0.E0,0.E0));
#141=AXIS2_PLACEMENT_3D('',#138,#139,#140);
#143=DIRECTION('',(4.637901912218E-10,1.E0,5.526869819017E-9));
#144=VECTOR('',#143,1.500000000696E0);
#145=CARTESIAN_POINT('',(-1.5E1,8.E0,0.E0));
#146=LINE('',#145,#144);
#147=CARTESIAN_POINT('',(0.E0,8.E0,0.E0));
#148=DIRECTION('',(0.E0,1.E0,0.E0));
#149=DIRECTION('',(1.E0,0.E0,0.E0));
#150=AXIS2_PLACEMENT_3D('',#147,#148,#149);
#152=CARTESIAN_POINT('',(0.E0,8.E0,0.E0));
#153=DIRECTION('',(0.E0,1.E0,0.E0));
#154=DIRECTION('',(-1.E0,0.E0,0.E0));
#155=AXIS2_PLACEMENT_3D('',#152,#153,#154);
#157=DIRECTION('',(1.E0,0.E0,0.E0));
#158=VECTOR('',#157,7.E0);
#159=CARTESIAN_POINT('',(-3.5E0,8.E0,-1.92E1));
#160=LINE('',#159,#158);
#161=DIRECTION('',(0.E0,0.E0,1.E0));
#162=VECTOR('',#161,4.234188415463E-1);
#163=CARTESIAN_POINT('',(3.5E0,8.E0,-1.92E1));
#164=LINE('',#163,#162);
#165=DIRECTION('',(0.E0,0.E0,-1.E0));
#166=VECTOR('',#165,4.234188415463E-1);
#167=CARTESIAN_POINT('',(3.5E0,8.E0,1.92E1));
#168=LINE('',#167,#166);
#169=DIRECTION('',(-1.E0,0.E0,0.E0));
#170=VECTOR('',#169,7.E0);
#171=CARTESIAN_POINT('',(3.5E0,8.E0,1.92E1));
#172=LINE('',#171,#170);
#173=DIRECTION('',(0.E0,0.E0,1.E0));
#174=VECTOR('',#173,4.234188415463E-1);
#175=CARTESIAN_POINT('',(-3.5E0,8.E0,1.877658115845E1));
#176=LINE('',#175,#174);
#177=DIRECTION('',(0.E0,0.E0,-1.E0));
#178=VECTOR('',#177,4.234188415463E-1);
#179=CARTESIAN_POINT('',(-3.5E0,8.E0,-1.877658115845E1));
#180=LINE('',#179,#178);
#181=DIRECTION('',(0.E0,-1.E0,0.E0));
#182=VECTOR('',#181,8.E0);
#183=CARTESIAN_POINT('',(3.5E0,1.7E1,-2.02E1));
#184=LINE('',#183,#182);
#185=DIRECTION('',(0.E0,0.E0,1.E0));
#186=VECTOR('',#185,1.915031760462E0);
#187=CARTESIAN_POINT('',(3.5E0,1.8E1,-2.12E1));
#188=LINE('',#187,#186);
#189=DIRECTION('',(0.E0,-7.071067811865E-1,7.071067811865E-1));
#190=VECTOR('',#189,1.414213562373E0);
#191=CARTESIAN_POINT('',(3.5E0,9.E0,-2.02E1));
#192=LINE('',#191,#190);
#193=DIRECTION('',(1.E0,0.E0,0.E0));
#194=VECTOR('',#193,7.E0);
#195=CARTESIAN_POINT('',(-3.5E0,1.7E1,-2.02E1));
#196=LINE('',#195,#194);
#197=DIRECTION('',(1.E0,0.E0,0.E0));
#198=VECTOR('',#197,7.E0);
#199=CARTESIAN_POINT('',(-3.5E0,9.E0,-2.02E1));
#200=LINE('',#199,#198);
#201=DIRECTION('',(0.E0,-1.E0,0.E0));
#202=VECTOR('',#201,8.E0);
#203=CARTESIAN_POINT('',(-3.5E0,1.7E1,-2.02E1));
#204=LINE('',#203,#202);
#205=DIRECTION('',(0.E0,7.071067811865E-1,-7.071067811865E-1));
#206=VECTOR('',#205,1.414213562373E0);
#207=CARTESIAN_POINT('',(-3.5E0,1.7E1,-2.02E1));
#208=LINE('',#207,#206);
#209=DIRECTION('',(0.E0,-7.071067811865E-1,7.071067811865E-1));
#210=VECTOR('',#209,1.414213562373E0);
#211=CARTESIAN_POINT('',(3.5E0,1.8E1,-2.12E1));
#212=LINE('',#211,#210);
#213=DIRECTION('',(0.E0,0.E0,-1.E0));
#214=VECTOR('',#213,1.915031760462E0);
#215=CARTESIAN_POINT('',(-3.5E0,1.8E1,-1.928496823954E1));
#216=LINE('',#215,#214);
#217=DIRECTION('',(0.E0,7.071067811865E-1,-7.071067811865E-1));
#218=VECTOR('',#217,1.414213562373E0);
#219=CARTESIAN_POINT('',(-3.5E0,8.E0,-1.92E1));
#220=LINE('',#219,#218);
#221=DIRECTION('',(1.E0,0.E0,0.E0));
#222=VECTOR('',#221,7.E0);
#223=CARTESIAN_POINT('',(-3.5E0,1.8E1,-2.12E1));
#224=LINE('',#223,#222);
#225=CARTESIAN_POINT('',(-9.392486788329E-14,1.8E1,-4.618527782441E-14));
#226=DIRECTION('',(0.E0,-1.E0,0.E0));
#227=DIRECTION('',(-6.161137440758E-1,0.E0,-7.876571934293E-1));
#228=AXIS2_PLACEMENT_3D('',#225,#226,#227);
#230=CARTESIAN_POINT('',(-1.3E1,1.8E1,-1.661956678136E1));
#231=DIRECTION('',(0.E0,1.E0,0.E0));
#232=DIRECTION('',(-1.E0,0.E0,0.E0));
#233=AXIS2_PLACEMENT_3D('',#230,#231,#232);
#235=DIRECTION('',(2.395793878149E-9,2.395795914320E-9,1.E0));
#236=VECTOR('',#235,1.744800898247E0);
#237=CARTESIAN_POINT('',(-1.449999999422E1,1.800000000578E1,-1.836436768036E1));
#238=LINE('',#237,#236);
#239=CARTESIAN_POINT('',(-1.3E1,1.8E1,-1.836436767221E1));
#240=DIRECTION('',(0.E0,1.E0,0.E0));
#241=DIRECTION('',(-5.777777777778E-1,0.E0,-8.161941187648E-1));
#242=AXIS2_PLACEMENT_3D('',#239,#240,#241);
#244=CARTESIAN_POINT('',(-1.3E1,1.8E1,1.836436767221E1));
#245=DIRECTION('',(0.E0,1.E0,0.E0));
#246=DIRECTION('',(-1.E0,0.E0,0.E0));
#247=AXIS2_PLACEMENT_3D('',#244,#245,#246);
#249=DIRECTION('',(-2.395792860063E-9,-2.395795914320E-9,1.E0));
#250=VECTOR('',#249,1.744800898247E0);
#251=CARTESIAN_POINT('',(-1.449999999004E1,1.800000000996E1,1.661956678211E1));
#252=LINE('',#251,#250);
#253=CARTESIAN_POINT('',(-1.3E1,1.8E1,1.661956678136E1));
#254=DIRECTION('',(0.E0,1.E0,0.E0));
#255=DIRECTION('',(6.161137440758E-1,0.E0,-7.876571934293E-1));
#256=AXIS2_PLACEMENT_3D('',#253,#254,#255);
#258=CARTESIAN_POINT('',(-1.261213355974E-13,1.8E1,2.886579864025E-13));
#259=DIRECTION('',(0.E0,-1.E0,0.E0));
#260=DIRECTION('',(-1.785714285714E-1,0.E0,9.839269509969E-1));
#261=AXIS2_PLACEMENT_3D('',#258,#259,#260);
#263=DIRECTION('',(-1.E0,0.E0,0.E0));
#264=VECTOR('',#263,7.E0);
#265=CARTESIAN_POINT('',(3.5E0,1.8E1,2.12E1));
#266=LINE('',#265,#264);
#267=CARTESIAN_POINT('',(-9.392486788329E-14,1.8E1,-4.618527782441E-14));
#268=DIRECTION('',(0.E0,-1.E0,0.E0));
#269=DIRECTION('',(1.785714285714E-1,0.E0,-9.839269509969E-1));
#270=AXIS2_PLACEMENT_3D('',#267,#268,#269);
#272=CARTESIAN_POINT('',(-3.5E0,1.8E1,-1.928496823954E1));
#273=CARTESIAN_POINT('',(-3.5E0,1.794410803457E1,-1.922816324465E1));
#274=CARTESIAN_POINT('',(-3.5E0,1.783254825605E1,-1.911476506273E1));
#275=CARTESIAN_POINT('',(-3.5E0,1.766588117855E1,-1.894530264509E1));
#276=CARTESIAN_POINT('',(-3.5E0,1.755521886431E1,-1.883275114486E1));
#277=CARTESIAN_POINT('',(-3.5E0,1.75E1,-1.877658115845E1));
#279=DIRECTION('',(4.356582303579E-1,-7.071067811865E-1,5.569577239983E-1));
#280=VECTOR('',#279,7.069178426231E-1);
#281=CARTESIAN_POINT('',(-1.207578180812E1,1.799992282279E1,-1.543802022223E1));
#282=LINE('',#281,#280);
#283=CARTESIAN_POINT('',(3.5E0,1.75E1,-1.877658115845E1));
#284=CARTESIAN_POINT('',(3.5E0,1.755521749591E1,-1.883274975289E1));
#285=CARTESIAN_POINT('',(3.5E0,1.766587798510E1,-1.894529939746E1));
#286=CARTESIAN_POINT('',(3.5E0,1.783254505362E1,-1.911476180719E1));
#287=CARTESIAN_POINT('',(3.5E0,1.794410666189E1,-1.922816184954E1));
#288=CARTESIAN_POINT('',(3.5E0,1.8E1,-1.928496823954E1));
#290=DIRECTION('',(0.E0,1.E0,0.E0));
#291=VECTOR('',#290,9.5E0);
#292=CARTESIAN_POINT('',(-3.5E0,8.E0,-1.877658115845E1));
#293=LINE('',#292,#291);
#294=CARTESIAN_POINT('',(0.E0,8.E0,0.E0));
#295=DIRECTION('',(0.E0,1.E0,0.E0));
#296=DIRECTION('',(-1.832460732984E-1,0.E0,-9.830670763588E-1));
#297=AXIS2_PLACEMENT_3D('',#294,#295,#296);
#299=DIRECTION('',(4.758708076654E-10,1.E0,-2.018390277060E-7));
#300=VECTOR('',#299,9.499994342510E0);
#301=CARTESIAN_POINT('',(-3.5E0,8.E0,1.877658115845E1));
#302=LINE('',#301,#300);
#303=CARTESIAN_POINT('',(0.E0,1.75E1,0.E0));
#304=DIRECTION('',(0.E0,-1.E0,0.E0));
#305=DIRECTION('',(-1.832460732984E-1,0.E0,9.830670763588E-1));
#306=AXIS2_PLACEMENT_3D('',#303,#304,#305);
#308=DIRECTION('',(1.896792001544E-8,1.E0,1.782059245185E-8));
#309=VECTOR('',#308,3.500000008225E0);
#310=CARTESIAN_POINT('',(-1.176777251185E1,1.4E1,1.504425239450E1));
#311=LINE('',#310,#309);
#312=CARTESIAN_POINT('',(0.E0,1.4E1,0.E0));
#313=DIRECTION('',(0.E0,1.E0,0.E0));
#314=DIRECTION('',(-6.161137440758E-1,0.E0,7.876571934293E-1));
#315=AXIS2_PLACEMENT_3D('',#312,#313,#314);
#317=CARTESIAN_POINT('',(0.E0,1.4E1,0.E0));
#318=DIRECTION('',(0.E0,1.E0,0.E0));
#319=DIRECTION('',(-3.664921465969E-1,0.E0,-9.304211446882E-1));
#320=AXIS2_PLACEMENT_3D('',#317,#318,#319);
#322=DIRECTION('',(9.919824527254E-6,-9.999999998701E-1,1.270695240461E-5));
#323=VECTOR('',#322,3.500056422984E0);
#324=CARTESIAN_POINT('',(-1.176780723179E1,1.750005642253E1,-1.504429686955E1));
#325=LINE('',#324,#323);
#326=CARTESIAN_POINT('',(0.E0,1.75E1,0.E0));
#327=DIRECTION('',(0.E0,-1.E0,0.E0));
#328=DIRECTION('',(-6.161137440758E-1,0.E0,-7.876571934293E-1));
#329=AXIS2_PLACEMENT_3D('',#326,#327,#328);
#331=DIRECTION('',(0.E0,1.E0,0.E0));
#332=VECTOR('',#331,9.5E0);
#333=CARTESIAN_POINT('',(3.5E0,8.E0,-1.877658115845E1));
#334=LINE('',#333,#332);
#335=CARTESIAN_POINT('',(0.E0,1.75E1,0.E0));
#336=DIRECTION('',(0.E0,-1.E0,0.E0));
#337=DIRECTION('',(1.832460732984E-1,0.E0,-9.830670763588E-1));
#338=AXIS2_PLACEMENT_3D('',#335,#336,#337);
#340=DIRECTION('',(-8.605970022731E-14,1.E0,-3.633785530337E-11));
#341=VECTOR('',#340,9.500012586315E0);
#342=CARTESIAN_POINT('',(3.5E0,8.E0,1.877658115845E1));
#343=LINE('',#342,#341);
#344=CARTESIAN_POINT('',(0.E0,8.E0,0.E0));
#345=DIRECTION('',(0.E0,1.E0,0.E0));
#346=DIRECTION('',(1.832460732984E-1,0.E0,9.830670763588E-1));
#347=AXIS2_PLACEMENT_3D('',#344,#345,#346);
#349=CARTESIAN_POINT('',(-3.499999995479E0,1.749999434251E1,1.877657924098E1));
#350=CARTESIAN_POINT('',(-3.499999995479E0,1.758257368955E1,1.886058098397E1));
#351=CARTESIAN_POINT('',(-3.500000002260E0,1.774849501792E1,1.902931662436E1));
#352=CARTESIAN_POINT('',(-3.5E0,1.791591284043E1,1.919950746475E1));
#353=CARTESIAN_POINT('',(-3.5E0,1.8E1,1.928496823954E1));
#355=DIRECTION('',(0.E0,-7.071067811865E-1,-7.071067811865E-1));
#356=VECTOR('',#355,1.414213562373E0);
#357=CARTESIAN_POINT('',(-3.5E0,9.E0,2.02E1));
#358=LINE('',#357,#356);
#359=DIRECTION('',(0.E0,0.E0,-1.E0));
#360=VECTOR('',#359,1.915031760462E0);
#361=CARTESIAN_POINT('',(-3.5E0,1.8E1,2.12E1));
#362=LINE('',#361,#360);
#363=DIRECTION('',(4.356582478862E-1,-7.071067811865E-1,-5.569577102875E-1));
#364=VECTOR('',#363,7.070240834781E-1);
#365=CARTESIAN_POINT('',(-1.207579331888E1,1.799994153211E1,1.543803497152E1));
#366=LINE('',#365,#364);
#367=DIRECTION('',(-7.071067811865E-1,-7.071067811865E-1,1.004859173558E-14));
#368=VECTOR('',#367,7.071067811865E-1);
#369=CARTESIAN_POINT('',(-1.449999999004E1,1.800000000996E1,1.661956678211E1));
#370=LINE('',#369,#368);
#371=DIRECTION('',(-7.071067811865E-1,-7.071067811865E-1,0.E0));
#372=VECTOR('',#371,7.071067811865E-1);
#373=CARTESIAN_POINT('',(-1.449999999422E1,1.800000000578E1,1.836436768036E1));
#374=LINE('',#373,#372);
#375=CARTESIAN_POINT('',(-2.566835632933E-13,1.8E1,-3.323122885562E-13));
#376=DIRECTION('',(0.E0,1.E0,0.E0));
#377=DIRECTION('',(-5.777777777778E-1,0.E0,8.161941187648E-1));
#378=AXIS2_PLACEMENT_3D('',#375,#376,#377);
#380=DIRECTION('',(-4.085505905034E-1,-7.071067811865E-1,5.771363920247E-1));
#381=VECTOR('',#380,7.071067822877E-1);
#382=CARTESIAN_POINT('',(-1.386666660717E1,1.800000000853E1,1.958865888202E1));
#383=LINE('',#382,#381);
#384=DIRECTION('',(-4.085505903918E-1,-7.071067811866E-1,-5.771363921037E-1));
#385=VECTOR('',#384,7.071067822579E-1);
#386=CARTESIAN_POINT('',(-1.386666660756E1,1.800000000844E1,-1.958865888186E1));
#387=LINE('',#386,#385);
#388=DIRECTION('',(-7.071067811865E-1,-7.071067811865E-1,0.E0));
#389=VECTOR('',#388,7.071067811865E-1);
#390=CARTESIAN_POINT('',(-1.449999999422E1,1.800000000578E1,-1.836436768036E1));
#391=LINE('',#390,#389);
#392=DIRECTION('',(-7.071067811865E-1,-7.071067811865E-1,0.E0));
#393=VECTOR('',#392,7.071067811865E-1);
#394=CARTESIAN_POINT('',(-1.449999999004E1,1.800000000996E1,-1.661956678211E1));
#395=LINE('',#394,#393);
#396=CARTESIAN_POINT('',(-1.3E1,1.75E1,-1.661956678136E1));
#397=DIRECTION('',(0.E0,1.E0,0.E0));
#398=DIRECTION('',(-1.E0,0.E0,0.E0));
#399=AXIS2_PLACEMENT_3D('',#396,#397,#398);
#401=CARTESIAN_POINT('',(-1.3E1,1.4E1,-1.661956678136E1));
#402=DIRECTION('',(0.E0,-1.E0,0.E0));
#403=DIRECTION('',(6.161137440758E-1,0.E0,7.876571934293E-1));
#404=AXIS2_PLACEMENT_3D('',#401,#402,#403);
#406=DIRECTION('',(0.E0,0.E0,-1.E0));
#407=VECTOR('',#406,5.707669900204E0);
#408=CARTESIAN_POINT('',(-7.E0,1.4E1,-1.777104386354E1));
#409=LINE('',#408,#407);
#410=CARTESIAN_POINT('',(-1.3E1,1.4E1,-1.836436767221E1));
#411=DIRECTION('',(0.E0,-1.E0,0.E0));
#412=DIRECTION('',(-1.E0,0.E0,0.E0));
#413=AXIS2_PLACEMENT_3D('',#410,#411,#412);
#415=CARTESIAN_POINT('',(-1.3E1,1.4E1,1.661956678136E1));
#416=DIRECTION('',(0.E0,-1.E0,0.E0));
#417=DIRECTION('',(-1.E0,0.E0,0.E0));
#418=AXIS2_PLACEMENT_3D('',#415,#416,#417);
#420=CARTESIAN_POINT('',(-1.3E1,1.4E1,1.836436767221E1));
#421=DIRECTION('',(0.E0,-1.E0,0.E0));
#422=DIRECTION('',(-5.777777777778E-1,0.E0,8.161941187648E-1));
#423=AXIS2_PLACEMENT_3D('',#420,#421,#422);
#425=DIRECTION('',(0.E0,0.E0,-1.E0));
#426=VECTOR('',#425,5.707669900204E0);
#427=CARTESIAN_POINT('',(-7.E0,1.4E1,2.347871376375E1));
#428=LINE('',#427,#426);
#429=CARTESIAN_POINT('',(-7.E0,1.4E1,-1.777104386354E1));
#430=CARTESIAN_POINT('',(-6.822334536179E0,1.4E1,-1.784102614800E1));
#431=CARTESIAN_POINT('',(-6.468944373640E0,1.395334935549E1,-1.797403731963E1));
#432=CARTESIAN_POINT('',(-5.968120767561E0,1.374053494604E1,-1.814578045212E1));
#433=CARTESIAN_POINT('',(-5.560101399436E0,1.341933788121E1,-1.827408742686E1));
#434=CARTESIAN_POINT('',(-5.243357594856E0,1.300409145413E1,-1.836686335609E1));
#435=CARTESIAN_POINT('',(-5.041907101309E0,1.250807670355E1,-1.842266231627E1));
#436=CARTESIAN_POINT('',(-5.E0,1.216814427258E1,-1.843393609623E1));
#437=CARTESIAN_POINT('',(-5.E0,1.2E1,-1.843393609623E1));
#439=CARTESIAN_POINT('',(-5.E0,1.2E1,-2.398436991042E1));
#440=CARTESIAN_POINT('',(-5.E0,1.216949643522E1,-2.398436991042E1));
#441=CARTESIAN_POINT('',(-5.042572057087E0,1.251163639427E1,-2.397556723643E1));
#442=CARTESIAN_POINT('',(-5.246131897625E0,1.300905602593E1,-2.393223964430E1));
#443=CARTESIAN_POINT('',(-5.564103404012E0,1.342348324415E1,-2.386077601713E1));
#444=CARTESIAN_POINT('',(-5.974276107619E0,1.374422535042E1,-2.376201134916E1));
#445=CARTESIAN_POINT('',(-6.474590616609E0,1.395458805208E1,-2.363106209147E1));
#446=CARTESIAN_POINT('',(-6.824776568726E0,1.4E1,-2.353095529756E1));
#447=CARTESIAN_POINT('',(-7.E0,1.4E1,-2.347871376375E1));
#449=DIRECTION('',(-5.544101453703E-9,-1.610980407227E-6,9.999999999987E-1));
#450=VECTOR('',#449,4.521895040354E0);
#451=CARTESIAN_POINT('',(-5.E0,1.E1,-2.347338918861E1));
#452=LINE('',#451,#450);
#453=DIRECTION('',(-7.389644451905E-14,1.E0,0.E0));
#454=VECTOR('',#453,2.5E0);
#455=CARTESIAN_POINT('',(-5.E0,9.5E0,-2.398436991042E1));
#456=LINE('',#455,#454);
#457=DIRECTION('',(0.E0,0.E0,-1.E0));
#458=VECTOR('',#457,5.550433814190E0);
#459=CARTESIAN_POINT('',(-5.E0,1.2E1,-1.843393609623E1));
#460=LINE('',#459,#458);
#461=DIRECTION('',(0.E0,-1.E0,0.E0));
#462=VECTOR('',#461,2.500000001765E0);
#463=CARTESIAN_POINT('',(-5.E0,1.2E1,-1.843393609623E1));
#464=LINE('',#463,#462);
#465=DIRECTION('',(2.813205234067E-10,-4.663331623500E-10,1.E0));
#466=VECTOR('',#465,4.521887502056E0);
#467=CARTESIAN_POINT('',(-5.000000001272E0,1.000000000211E1,1.895150168656E1));
#468=LINE('',#467,#466);
#469=DIRECTION('',(5.355431662485E-10,1.E0,2.299458405240E-11));
#470=VECTOR('',#469,2.499999995898E0);
#471=CARTESIAN_POINT('',(-5.000000001339E0,9.500000004102E0,1.843393609618E1));
#472=LINE('',#471,#470);
#473=DIRECTION('',(0.E0,0.E0,-1.E0));
#474=VECTOR('',#473,5.550433814190E0);
#475=CARTESIAN_POINT('',(-5.E0,1.2E1,2.398436991042E1));
#476=LINE('',#475,#474);
#477=DIRECTION('',(0.E0,-1.E0,0.E0));
#478=VECTOR('',#477,2.5E0);
#479=CARTESIAN_POINT('',(-5.E0,1.2E1,2.398436991042E1));
#480=LINE('',#479,#478);
#481=CARTESIAN_POINT('',(-1.941860431518E-9,9.500000002206E0,
-5.139423137177E-9));
#482=DIRECTION('',(0.E0,1.E0,0.E0));
#483=DIRECTION('',(-2.617801046853E-1,0.E0,-9.651275443126E-1));
#484=AXIS2_PLACEMENT_3D('',#481,#482,#483);
#486=CARTESIAN_POINT('',(-5.000000001339E0,9.500000004102E0,1.843393609618E1));
#487=CARTESIAN_POINT('',(-5.000000001339E0,9.582514918550E0,1.851943247946E1));
#488=CARTESIAN_POINT('',(-4.999999998695E0,9.748363484557E0,1.869119975146E1));
#489=CARTESIAN_POINT('',(-5.000000001272E0,9.915848571067E0,1.886447076229E1));
#490=CARTESIAN_POINT('',(-5.000000001272E0,1.000000000211E1,1.895150168656E1));
#492=CARTESIAN_POINT('',(-1.941860338025E-9,1.E1,-5.139423137177E-9));
#493=DIRECTION('',(0.E0,-1.E0,0.E0));
#494=DIRECTION('',(-2.551026221582E-1,0.E0,9.669139838517E-1));
#495=AXIS2_PLACEMENT_3D('',#492,#493,#494);
#497=CARTESIAN_POINT('',(-5.000000025070E0,9.999992715316E0,-1.895149414826E1));
#498=CARTESIAN_POINT('',(-5.000000025070E0,9.915751468465E0,-1.886437032803E1));
#499=CARTESIAN_POINT('',(-4.999999987465E0,9.748187569991E0,-1.869101765801E1));
#500=CARTESIAN_POINT('',(-5.E0,9.582425179885E0,-1.851933950445E1));
#501=CARTESIAN_POINT('',(-5.E0,9.499999998235E0,-1.843393609623E1));
#503=CARTESIAN_POINT('',(-5.E0,9.5E0,-2.398436991042E1));
#504=CARTESIAN_POINT('',(-5.E0,9.584112468084E0,-2.389844914303E1));
#505=CARTESIAN_POINT('',(-5.E0,9.751558325445E0,-2.372736497679E1));
#506=CARTESIAN_POINT('',(-5.E0,9.917445856659E0,-2.355779538255E1));
#507=CARTESIAN_POINT('',(-5.E0,1.E1,-2.347338918861E1));
#509=CARTESIAN_POINT('',(3.849785987074E-13,1.E1,-9.496831111376E-14));
#510=DIRECTION('',(0.E0,1.E0,0.E0));
#511=DIRECTION('',(-2.083333333333E-1,0.E0,-9.780578828588E-1));
#512=AXIS2_PLACEMENT_3D('',#509,#510,#511);
#514=CARTESIAN_POINT('',(-5.E0,1.E1,2.347338918861E1));
#515=CARTESIAN_POINT('',(-5.E0,9.917452953884E0,2.355778812610E1));
#516=CARTESIAN_POINT('',(-5.E0,9.751572523273E0,2.372735046720E1));
#517=CARTESIAN_POINT('',(-5.E0,9.584119568630E0,2.389844188984E1));
#518=CARTESIAN_POINT('',(-5.E0,9.5E0,2.398436991042E1));
#520=CARTESIAN_POINT('',(0.E0,5.000000000001E-1,0.E0));
#521=DIRECTION('',(0.E0,-1.E0,0.E0));
#522=DIRECTION('',(1.E0,0.E0,0.E0));
#523=AXIS2_PLACEMENT_3D('',#520,#521,#522);
#525=CARTESIAN_POINT('',(0.E0,9.5E0,0.E0));
#526=DIRECTION('',(0.E0,1.E0,0.E0));
#527=DIRECTION('',(-1.E0,0.E0,0.E0));
#528=AXIS2_PLACEMENT_3D('',#525,#526,#527);
#530=CARTESIAN_POINT('',(0.E0,1.4E1,0.E0));
#531=DIRECTION('',(0.E0,1.E0,0.E0));
#532=DIRECTION('',(-5.777777777778E-1,0.E0,8.161941187648E-1));
#533=AXIS2_PLACEMENT_3D('',#530,#531,#532);
#535=DIRECTION('',(-1.569517135003E-8,-1.E0,-8.398187777390E-9));
#536=VECTOR('',#535,3.500000007748E0);
#537=CARTESIAN_POINT('',(-1.415555550062E1,1.750000000775E1,1.999675593913E1));
#538=LINE('',#537,#536);
#539=CARTESIAN_POINT('',(0.E0,1.75E1,0.E0));
#540=DIRECTION('',(0.E0,1.E0,0.E0));
#541=DIRECTION('',(-5.777777777778E-1,0.E0,8.161941187648E-1));
#542=AXIS2_PLACEMENT_3D('',#539,#540,#541);
#544=DIRECTION('',(7.071067811865E-1,7.071067811865E-1,3.176569658436E-9));
#545=VECTOR('',#544,7.071067813013E-1);
#546=CARTESIAN_POINT('',(2.399999999965E1,-3.461740523865E-10,
-9.583662704519E-9));
#547=LINE('',#546,#545);
#548=DIRECTION('',(-7.071067811865E-1,7.071067811865E-1,-3.176565061005E-9));
#549=VECTOR('',#548,7.071067813013E-1);
#550=CARTESIAN_POINT('',(-2.399999999965E1,-3.461764208623E-10,
9.583661635762E-9));
#551=LINE('',#550,#549);
#552=CARTESIAN_POINT('',(0.E0,5.E-1,0.E0));
#553=DIRECTION('',(0.E0,-1.E0,0.E0));
#554=DIRECTION('',(-1.E0,0.E0,0.E0));
#555=AXIS2_PLACEMENT_3D('',#552,#553,#554);
#557=DIRECTION('',(3.774444808886E-12,1.E0,9.034036737455E-11));
#558=VECTOR('',#557,1.700000000047E1);
#559=CARTESIAN_POINT('',(2.449999999973E1,4.999999997350E-1,
-7.337488757763E-9));
#560=LINE('',#559,#558);
#561=CARTESIAN_POINT('',(0.E0,1.75E1,0.E0));
#562=DIRECTION('',(0.E0,1.E0,0.E0));
#563=DIRECTION('',(1.E0,0.E0,0.E0));
#564=AXIS2_PLACEMENT_3D('',#561,#562,#563);
#566=DIRECTION('',(1.561015338960E-8,1.E0,-8.362102357268E-9));
#567=VECTOR('',#566,3.500000007680E0);
#568=CARTESIAN_POINT('',(-1.415555555556E1,1.4E1,-1.999675590974E1));
#569=LINE('',#568,#567);
#570=CARTESIAN_POINT('',(0.E0,1.4E1,0.E0));
#571=DIRECTION('',(0.E0,1.E0,0.E0));
#572=DIRECTION('',(-2.857142857143E-1,0.E0,-9.583148474999E-1));
#573=AXIS2_PLACEMENT_3D('',#570,#571,#572);
#575=CARTESIAN_POINT('',(0.E0,9.5E0,0.E0));
#576=DIRECTION('',(0.E0,1.E0,0.E0));
#577=DIRECTION('',(-2.040816326531E-1,0.E0,-9.789538738948E-1));
#578=AXIS2_PLACEMENT_3D('',#575,#576,#577);
#580=DIRECTION('',(-1.681770540207E-6,-9.999999999986E-1,2.079392318625E-9));
#581=VECTOR('',#580,9.000015136503E0);
#582=CARTESIAN_POINT('',(-2.449998486377E1,9.500015136225E0,
-1.137707140248E-8));
#583=LINE('',#582,#581);
#584=CARTESIAN_POINT('',(-1.3E1,1.75E1,-1.836436767221E1));
#585=DIRECTION('',(0.E0,1.E0,0.E0));
#586=DIRECTION('',(-5.777777777778E-1,0.E0,-8.161941187648E-1));
#587=AXIS2_PLACEMENT_3D('',#584,#585,#586);
#589=DIRECTION('',(2.395792860063E-9,2.395793878149E-9,1.E0));
#590=VECTOR('',#589,1.744800898247E0);
#591=CARTESIAN_POINT('',(-1.499999999422E1,1.750000000578E1,-1.836436768036E1));
#592=LINE('',#591,#590);
#593=DIRECTION('',(-2.844757310506E-9,-1.E0,2.147077430370E-10));
#594=VECTOR('',#593,3.500000009957E0);
#595=CARTESIAN_POINT('',(-1.499999999004E1,1.750000000996E1,-1.661956678211E1));
#596=LINE('',#595,#594);
#597=DIRECTION('',(0.E0,0.E0,1.E0));
#598=VECTOR('',#597,1.744800890850E0);
#599=CARTESIAN_POINT('',(-1.5E1,1.4E1,-1.836436767221E1));
#600=LINE('',#599,#598);
#601=DIRECTION('',(1.650419227129E-9,1.E0,-2.328385607458E-9));
#602=VECTOR('',#601,3.500000005776E0);
#603=CARTESIAN_POINT('',(-1.5E1,1.4E1,-1.836436767221E1));
#604=LINE('',#603,#602);
#605=DIRECTION('',(-2.395791841977E-9,-2.395791841977E-9,1.E0));
#606=VECTOR('',#605,1.744800898247E0);
#607=CARTESIAN_POINT('',(-1.499999999004E1,1.750000000996E1,1.661956678211E1));
#608=LINE('',#607,#606);
#609=DIRECTION('',(-1.650419734660E-9,-1.E0,-2.328386622519E-9));
#610=VECTOR('',#609,3.500000005776E0);
#611=CARTESIAN_POINT('',(-1.499999999422E1,1.750000000578E1,1.836436768036E1));
#612=LINE('',#611,#610);
#613=DIRECTION('',(0.E0,0.E0,1.E0));
#614=VECTOR('',#613,1.744800890850E0);
#615=CARTESIAN_POINT('',(-1.5E1,1.4E1,1.661956678136E1));
#616=LINE('',#615,#614);
#617=DIRECTION('',(2.844757310506E-9,1.E0,2.147077430370E-10));
#618=VECTOR('',#617,3.500000009957E0);
#619=CARTESIAN_POINT('',(-1.5E1,1.4E1,1.661956678136E1));
#620=LINE('',#619,#618);
#621=CARTESIAN_POINT('',(-1.3E1,1.75E1,1.836436767221E1));
#622=DIRECTION('',(0.E0,1.E0,0.E0));
#623=DIRECTION('',(-1.E0,0.E0,0.E0));
#624=AXIS2_PLACEMENT_3D('',#621,#622,#623);
#626=CARTESIAN_POINT('',(-1.3E1,1.75E1,1.661956678136E1));
#627=DIRECTION('',(0.E0,1.E0,0.E0));
#628=DIRECTION('',(6.161137440758E-1,0.E0,-7.876571934293E-1));
#629=AXIS2_PLACEMENT_3D('',#626,#627,#628);
#631=CARTESIAN_POINT('',(-7.E0,1.4E1,2.347871376375E1));
#632=CARTESIAN_POINT('',(-6.824776568726E0,1.4E1,2.353095529756E1));
#633=CARTESIAN_POINT('',(-6.474590616609E0,1.395458805208E1,2.363106209147E1));
#634=CARTESIAN_POINT('',(-5.974276107619E0,1.374422535042E1,2.376201134916E1));
#635=CARTESIAN_POINT('',(-5.564103404012E0,1.342348324415E1,2.386077601713E1));
#636=CARTESIAN_POINT('',(-5.246131897625E0,1.300905602593E1,2.393223964430E1));
#637=CARTESIAN_POINT('',(-5.042572057087E0,1.251163639427E1,2.397556723643E1));
#638=CARTESIAN_POINT('',(-5.E0,1.216949643522E1,2.398436991042E1));
#639=CARTESIAN_POINT('',(-5.E0,1.2E1,2.398436991042E1));
#641=CARTESIAN_POINT('',(-5.E0,1.2E1,1.843393609623E1));
#642=CARTESIAN_POINT('',(-5.E0,1.216814427258E1,1.843393609623E1));
#643=CARTESIAN_POINT('',(-5.041907101309E0,1.250807670355E1,1.842266231627E1));
#644=CARTESIAN_POINT('',(-5.243357594856E0,1.300409145413E1,1.836686335609E1));
#645=CARTESIAN_POINT('',(-5.560101399436E0,1.341933788121E1,1.827408742686E1));
#646=CARTESIAN_POINT('',(-5.968120767561E0,1.374053494604E1,1.814578045212E1));
#647=CARTESIAN_POINT('',(-6.468944373640E0,1.395334935549E1,1.797403731963E1));
#648=CARTESIAN_POINT('',(-6.822334536179E0,1.4E1,1.784102614800E1));
#649=CARTESIAN_POINT('',(-7.E0,1.4E1,1.777104386354E1));
#651=CARTESIAN_POINT('',(3.5E0,1.8E1,1.928496823954E1));
#652=CARTESIAN_POINT('',(3.5E0,1.791590041884E1,1.919949484024E1));
#653=CARTESIAN_POINT('',(3.5E0,1.774846105801E1,1.902929041169E1));
#654=CARTESIAN_POINT('',(3.499999999999E0,1.758257951771E1,1.886057027074E1));
#655=CARTESIAN_POINT('',(3.499999999999E0,1.750001258632E1,1.877658115811E1));
#657=DIRECTION('',(0.E0,0.E0,1.E0));
#658=VECTOR('',#657,1.915031760462E0);
#659=CARTESIAN_POINT('',(3.5E0,1.8E1,1.928496823954E1));
#660=LINE('',#659,#658);
#661=DIRECTION('',(0.E0,-1.E0,0.E0));
#662=VECTOR('',#661,8.E0);
#663=CARTESIAN_POINT('',(3.5E0,1.7E1,2.02E1));
#664=LINE('',#663,#662);
#665=DIRECTION('',(0.E0,7.071067811865E-1,7.071067811865E-1));
#666=VECTOR('',#665,1.414213562373E0);
#667=CARTESIAN_POINT('',(3.5E0,8.E0,1.92E1));
#668=LINE('',#667,#666);
#669=DIRECTION('',(0.E0,7.071067811865E-1,7.071067811865E-1));
#670=VECTOR('',#669,1.414213562373E0);
#671=CARTESIAN_POINT('',(3.5E0,1.7E1,2.02E1));
#672=LINE('',#671,#670);
#673=DIRECTION('',(0.E0,-7.071067811865E-1,-7.071067811865E-1));
#674=VECTOR('',#673,1.414213562373E0);
#675=CARTESIAN_POINT('',(-3.5E0,1.8E1,2.12E1));
#676=LINE('',#675,#674);
#677=DIRECTION('',(-1.E0,0.E0,0.E0));
#678=VECTOR('',#677,7.E0);
#679=CARTESIAN_POINT('',(3.5E0,1.7E1,2.02E1));
#680=LINE('',#679,#678);
#681=DIRECTION('',(0.E0,-1.E0,0.E0));
#682=VECTOR('',#681,8.E0);
#683=CARTESIAN_POINT('',(-3.5E0,1.7E1,2.02E1));
#684=LINE('',#683,#682);
#685=DIRECTION('',(-1.E0,0.E0,0.E0));
#686=VECTOR('',#685,7.E0);
#687=CARTESIAN_POINT('',(3.5E0,9.E0,2.02E1));
#688=LINE('',#687,#686);
#689=DIRECTION('',(-7.071067811865E-1,-7.071067811865E-1,-4.368724117838E-8));
#690=VECTOR('',#689,7.071067731505E-1);
#691=CARTESIAN_POINT('',(3.399999984229E0,9.999999984229E0,8.573979715955E-8));
#692=LINE('',#691,#690);
#693=CARTESIAN_POINT('',(0.E0,9.5E0,0.E0));
#694=DIRECTION('',(0.E0,-1.E0,0.E0));
#695=DIRECTION('',(1.E0,0.E0,0.E0));
#696=AXIS2_PLACEMENT_3D('',#693,#694,#695);
#698=CARTESIAN_POINT('',(0.E0,5.E-1,0.E0));
#699=DIRECTION('',(0.E0,1.E0,0.E0));
#700=DIRECTION('',(-1.E0,0.E0,0.E0));
#701=AXIS2_PLACEMENT_3D('',#698,#699,#700);
#703=DIRECTION('',(7.071067811865E-1,7.071067811865E-1,-3.481583656396E-9));
#704=VECTOR('',#703,7.071067818429E-1);
#705=CARTESIAN_POINT('',(9.999999997816E0,-2.184139091810E-9,
1.158518464217E-8));
#706=LINE('',#705,#704);
#707=DIRECTION('',(-7.071067811865E-1,7.071067811865E-1,3.481588096830E-9));
#708=VECTOR('',#707,7.071067818429E-1);
#709=CARTESIAN_POINT('',(-9.999999997816E0,-2.184137907572E-9,
-1.158519393217E-8));
#710=LINE('',#709,#708);
#711=CARTESIAN_POINT('',(0.E0,5.E-1,0.E0));
#712=DIRECTION('',(0.E0,-1.E0,0.E0));
#713=DIRECTION('',(-1.E0,0.E0,0.E0));
#714=AXIS2_PLACEMENT_3D('',#711,#712,#713);
#716=DIRECTION('',(-3.127292363485E-10,-1.E0,1.658787703104E-9));
#717=VECTOR('',#716,5.500000001720E0);
#718=CARTESIAN_POINT('',(1.05E1,6.E0,0.E0));
#719=LINE('',#718,#717);
#720=CARTESIAN_POINT('',(1.028703311284E-14,6.E0,0.E0));
#721=DIRECTION('',(0.E0,1.E0,0.E0));
#722=DIRECTION('',(1.E0,0.E0,0.E0));
#723=AXIS2_PLACEMENT_3D('',#720,#721,#722);
#725=DIRECTION('',(3.127285904005E-10,-1.E0,-1.658788821311E-9));
#726=VECTOR('',#725,5.500000001720E0);
#727=CARTESIAN_POINT('',(-1.05E1,6.E0,0.E0));
#728=LINE('',#727,#726);
#729=CARTESIAN_POINT('',(0.E0,5.E-1,0.E0));
#730=DIRECTION('',(0.E0,-1.E0,0.E0));
#731=DIRECTION('',(1.E0,0.E0,0.E0));
#732=AXIS2_PLACEMENT_3D('',#729,#730,#731);
#734=CARTESIAN_POINT('',(1.028703311284E-14,6.E0,0.E0));
#735=DIRECTION('',(0.E0,-1.E0,0.E0));
#736=DIRECTION('',(1.E0,0.E0,0.E0));
#737=AXIS2_PLACEMENT_3D('',#734,#735,#736);
#739=CARTESIAN_POINT('',(1.028703311284E-14,6.E0,0.E0));
#740=DIRECTION('',(0.E0,1.E0,0.E0));
#741=DIRECTION('',(1.E0,0.E0,0.E0));
#742=AXIS2_PLACEMENT_3D('',#739,#740,#741);
#744=CARTESIAN_POINT('',(1.028703311284E-14,6.E0,0.E0));
#745=DIRECTION('',(0.E0,-1.E0,0.E0));
#746=DIRECTION('',(1.E0,0.E0,0.E0));
#747=AXIS2_PLACEMENT_3D('',#744,#745,#746);
#749=CARTESIAN_POINT('',(0.E0,5.E-1,0.E0));
#750=DIRECTION('',(0.E0,1.E0,0.E0));
#751=DIRECTION('',(1.E0,0.E0,0.E0));
#752=AXIS2_PLACEMENT_3D('',#749,#750,#751);
#754=DIRECTION('',(-1.125125043764E-10,1.E0,1.963575662360E-9));
#755=VECTOR('',#754,5.499999999381E0);
#756=CARTESIAN_POINT('',(-1.849999999938E1,5.000000006188E-1,
-1.079966765216E-8));
#757=LINE('',#756,#755);
#758=DIRECTION('',(1.125125043764E-10,1.E0,-1.963575746098E-9));
#759=VECTOR('',#758,5.499999999381E0);
#760=CARTESIAN_POINT('',(1.849999999938E1,5.000000006188E-1,1.079966811272E-8));
#761=LINE('',#760,#759);
#762=DIRECTION('',(-7.071067811865E-1,7.071067811866E-1,-5.641390992906E-9));
#763=VECTOR('',#762,7.071067808633E-1);
#764=CARTESIAN_POINT('',(1.899999999915E1,8.473956351433E-10,
1.478873393731E-8));
#765=LINE('',#764,#763);
#766=DIRECTION('',(7.071067811866E-1,7.071067811865E-1,5.641390752326E-9));
#767=VECTOR('',#766,7.071067808633E-1);
#768=CARTESIAN_POINT('',(-1.899999999915E1,8.473980036191E-10,
-1.478873330663E-8));
#769=LINE('',#768,#767);
#770=CARTESIAN_POINT('',(0.E0,5.E-1,0.E0));
#771=DIRECTION('',(0.E0,1.E0,0.E0));
#772=DIRECTION('',(-1.E0,0.E0,0.E0));
#773=AXIS2_PLACEMENT_3D('',#770,#771,#772);
#775=CARTESIAN_POINT('',(1.85E1,6.E0,0.E0));
#776=CARTESIAN_POINT('',(-1.85E1,6.E0,0.E0));
#777=VERTEX_POINT('',#775);
#778=VERTEX_POINT('',#776);
#779=CARTESIAN_POINT('',(1.05E1,6.E0,0.E0));
#780=CARTESIAN_POINT('',(-1.05E1,6.E0,0.E0));
#781=VERTEX_POINT('',#779);
#782=VERTEX_POINT('',#780);
#783=CARTESIAN_POINT('',(1.5E1,8.E0,0.E0));
#784=CARTESIAN_POINT('',(-1.5E1,8.E0,0.E0));
#785=VERTEX_POINT('',#783);
#786=VERTEX_POINT('',#784);
#787=CARTESIAN_POINT('',(-1.176777251185E1,1.4E1,-1.504425239450E1));
#788=CARTESIAN_POINT('',(-1.5E1,1.4E1,-1.661956678136E1));
#789=VERTEX_POINT('',#787);
#790=VERTEX_POINT('',#788);
#791=CARTESIAN_POINT('',(-1.5E1,1.4E1,1.661956678136E1));
#792=CARTESIAN_POINT('',(-1.176777251185E1,1.4E1,1.504425239450E1));
#793=VERTEX_POINT('',#791);
#794=VERTEX_POINT('',#792);
#795=CARTESIAN_POINT('',(-1.5E1,1.4E1,-1.836436767221E1));
#796=VERTEX_POINT('',#795);
#797=CARTESIAN_POINT('',(-1.5E1,1.4E1,1.836436767221E1));
#798=VERTEX_POINT('',#797);
#799=CARTESIAN_POINT('',(-7.E0,1.4E1,2.347871376375E1));
#800=CARTESIAN_POINT('',(-7.E0,1.4E1,1.777104386354E1));
#801=VERTEX_POINT('',#799);
#802=VERTEX_POINT('',#800);
#803=CARTESIAN_POINT('',(-5.E0,1.2E1,2.398436991042E1));
#804=CARTESIAN_POINT('',(-5.E0,1.2E1,1.843393609623E1));
#805=VERTEX_POINT('',#803);
#806=VERTEX_POINT('',#804);
#807=CARTESIAN_POINT('',(-7.E0,1.4E1,-1.777104386354E1));
#808=CARTESIAN_POINT('',(-7.E0,1.4E1,-2.347871376375E1));
#809=VERTEX_POINT('',#807);
#810=VERTEX_POINT('',#808);
#811=CARTESIAN_POINT('',(-5.E0,1.2E1,-1.843393609623E1));
#812=CARTESIAN_POINT('',(-5.E0,1.2E1,-2.398436991042E1));
#813=VERTEX_POINT('',#811);
#814=VERTEX_POINT('',#812);
#815=CARTESIAN_POINT('',(-1.415555555556E1,1.4E1,-1.999675590974E1));
#816=VERTEX_POINT('',#815);
#817=CARTESIAN_POINT('',(-1.415555555556E1,1.4E1,1.999675590974E1));
#818=VERTEX_POINT('',#817);
#819=CARTESIAN_POINT('',(3.5E0,1.7E1,2.02E1));
#820=CARTESIAN_POINT('',(-3.5E0,1.7E1,2.02E1));
#821=VERTEX_POINT('',#819);
#822=VERTEX_POINT('',#820);
#823=CARTESIAN_POINT('',(3.5E0,1.8E1,2.12E1));
#824=CARTESIAN_POINT('',(-3.5E0,1.8E1,2.12E1));
#825=VERTEX_POINT('',#823);
#826=VERTEX_POINT('',#824);
#827=CARTESIAN_POINT('',(-3.5E0,9.E0,2.02E1));
#828=CARTESIAN_POINT('',(-3.5E0,8.E0,1.92E1));
#829=VERTEX_POINT('',#827);
#830=VERTEX_POINT('',#828);
#831=CARTESIAN_POINT('',(3.5E0,8.E0,1.92E1));
#832=VERTEX_POINT('',#831);
#833=CARTESIAN_POINT('',(3.5E0,9.E0,2.02E1));
#834=VERTEX_POINT('',#833);
#835=CARTESIAN_POINT('',(-3.5E0,8.E0,1.877658115845E1));
#836=VERTEX_POINT('',#835);
#837=CARTESIAN_POINT('',(3.5E0,8.E0,1.877658115845E1));
#838=VERTEX_POINT('',#837);
#839=CARTESIAN_POINT('',(-1.45E1,1.E1,0.E0));
#840=CARTESIAN_POINT('',(1.45E1,1.E1,0.E0));
#841=VERTEX_POINT('',#839);
#842=VERTEX_POINT('',#840);
#843=CARTESIAN_POINT('',(-1.5E1,9.5E0,0.E0));
#844=CARTESIAN_POINT('',(1.5E1,9.5E0,0.E0));
#845=VERTEX_POINT('',#843);
#846=VERTEX_POINT('',#844);
#847=CARTESIAN_POINT('',(3.4E0,1.E1,0.E0));
#848=CARTESIAN_POINT('',(-3.4E0,1.E1,0.E0));
#849=VERTEX_POINT('',#847);
#850=VERTEX_POINT('',#848);
#851=CARTESIAN_POINT('',(2.9E0,9.5E0,0.E0));
#852=CARTESIAN_POINT('',(-2.9E0,9.5E0,0.E0));
#853=VERTEX_POINT('',#851);
#854=VERTEX_POINT('',#852);
#855=CARTESIAN_POINT('',(-3.4E0,0.E0,0.E0));
#856=CARTESIAN_POINT('',(3.4E0,0.E0,0.E0));
#857=VERTEX_POINT('',#855);
#858=VERTEX_POINT('',#856);
#859=CARTESIAN_POINT('',(-2.9E0,5.E-1,0.E0));
#860=CARTESIAN_POINT('',(2.9E0,5.E-1,0.E0));
#861=VERTEX_POINT('',#859);
#862=VERTEX_POINT('',#860);
#863=CARTESIAN_POINT('',(1.E1,0.E0,0.E0));
#864=CARTESIAN_POINT('',(-1.E1,0.E0,0.E0));
#865=VERTEX_POINT('',#863);
#866=VERTEX_POINT('',#864);
#867=CARTESIAN_POINT('',(1.05E1,5.E-1,0.E0));
#868=CARTESIAN_POINT('',(-1.05E1,5.E-1,0.E0));
#869=VERTEX_POINT('',#867);
#870=VERTEX_POINT('',#868);
#871=CARTESIAN_POINT('',(-1.9E1,0.E0,0.E0));
#872=CARTESIAN_POINT('',(1.9E1,0.E0,0.E0));
#873=VERTEX_POINT('',#871);
#874=VERTEX_POINT('',#872);
#875=CARTESIAN_POINT('',(-1.85E1,5.E-1,0.E0));
#876=CARTESIAN_POINT('',(1.85E1,5.E-1,0.E0));
#877=VERTEX_POINT('',#875);
#878=VERTEX_POINT('',#876);
#879=CARTESIAN_POINT('',(2.4E1,0.E0,0.E0));
#880=CARTESIAN_POINT('',(-2.4E1,0.E0,0.E0));
#881=VERTEX_POINT('',#879);
#882=VERTEX_POINT('',#880);
#883=CARTESIAN_POINT('',(2.45E1,5.000000000001E-1,0.E0));
#884=CARTESIAN_POINT('',(-2.45E1,5.000000000001E-1,0.E0));
#885=VERTEX_POINT('',#883);
#886=VERTEX_POINT('',#884);
#887=CARTESIAN_POINT('',(2.449999999980E1,1.750000000020E1,-5.801702512353E-9));
#888=VERTEX_POINT('',#887);
#889=CARTESIAN_POINT('',(-2.449998486377E1,9.500015136225E0,
-1.137707140248E-8));
#890=VERTEX_POINT('',#889);
#891=CARTESIAN_POINT('',(-5.E0,1.E1,-2.347338918861E1));
#892=CARTESIAN_POINT('',(-5.000000025070E0,9.999992715316E0,-1.895149414826E1));
#893=VERTEX_POINT('',#891);
#894=VERTEX_POINT('',#892);
#895=CARTESIAN_POINT('',(-5.000000001272E0,1.000000000211E1,1.895150168656E1));
#896=CARTESIAN_POINT('',(-5.E0,1.E1,2.347338918861E1));
#897=VERTEX_POINT('',#895);
#898=VERTEX_POINT('',#896);
#899=CARTESIAN_POINT('',(-5.000000001040E0,9.500000002206E0,-1.843393610007E1));
#900=CARTESIAN_POINT('',(-4.999999998443E0,9.500000002206E0,1.843393609049E1));
#901=VERTEX_POINT('',#899);
#902=VERTEX_POINT('',#900);
#903=CARTESIAN_POINT('',(-5.E0,9.5E0,2.398436991042E1));
#904=VERTEX_POINT('',#903);
#905=CARTESIAN_POINT('',(-5.E0,9.5E0,-2.398436991042E1));
#906=VERTEX_POINT('',#905);
#907=VERTEX_POINT('',#651);
#908=VERTEX_POINT('',#655);
#909=CARTESIAN_POINT('',(-1.45E1,1.8E1,-1.661956678136E1));
#910=CARTESIAN_POINT('',(-1.207582938389E1,1.8E1,-1.543808099121E1));
#911=VERTEX_POINT('',#909);
#912=VERTEX_POINT('',#910);
#913=CARTESIAN_POINT('',(-1.5E1,1.75E1,-1.661956678136E1));
#914=CARTESIAN_POINT('',(-1.176777251185E1,1.75E1,-1.504425239450E1));
#915=VERTEX_POINT('',#913);
#916=VERTEX_POINT('',#914);
#917=CARTESIAN_POINT('',(-1.449999999422E1,1.800000000578E1,-1.836436768036E1));
#918=VERTEX_POINT('',#917);
#919=CARTESIAN_POINT('',(-1.499999999422E1,1.750000000578E1,-1.836436768036E1));
#920=VERTEX_POINT('',#919);
#921=CARTESIAN_POINT('',(-1.386666666667E1,1.8E1,-1.958865885035E1));
#922=VERTEX_POINT('',#921);
#923=CARTESIAN_POINT('',(-1.415555555556E1,1.75E1,-1.999675590974E1));
#924=VERTEX_POINT('',#923);
#925=CARTESIAN_POINT('',(-1.415555555556E1,1.75E1,1.999675590974E1));
#926=VERTEX_POINT('',#925);
#927=CARTESIAN_POINT('',(-1.45E1,1.8E1,1.836436767221E1));
#928=CARTESIAN_POINT('',(-1.386666666667E1,1.8E1,1.958865885035E1));
#929=VERTEX_POINT('',#927);
#930=VERTEX_POINT('',#928);
#931=CARTESIAN_POINT('',(-1.5E1,1.75E1,1.836436767221E1));
#932=VERTEX_POINT('',#931);
#933=CARTESIAN_POINT('',(-1.449999999004E1,1.800000000996E1,1.661956678211E1));
#934=VERTEX_POINT('',#933);
#935=CARTESIAN_POINT('',(-1.499999999004E1,1.750000000996E1,1.661956678211E1));
#936=VERTEX_POINT('',#935);
#937=CARTESIAN_POINT('',(-1.207582938389E1,1.8E1,1.543808099121E1));
#938=VERTEX_POINT('',#937);
#939=CARTESIAN_POINT('',(-1.176777251185E1,1.75E1,1.504425239450E1));
#940=VERTEX_POINT('',#939);
#941=VERTEX_POINT('',#349);
#942=VERTEX_POINT('',#353);
#943=CARTESIAN_POINT('',(-3.5E0,8.E0,-1.877658115845E1));
#944=CARTESIAN_POINT('',(-3.5E0,1.75E1,-1.877658115845E1));
#945=VERTEX_POINT('',#943);
#946=VERTEX_POINT('',#944);
#947=CARTESIAN_POINT('',(3.5E0,8.E0,-1.877658115845E1));
#948=CARTESIAN_POINT('',(3.5E0,1.75E1,-1.877658115845E1));
#949=VERTEX_POINT('',#947);
#950=VERTEX_POINT('',#948);
#951=VERTEX_POINT('',#272);
#952=VERTEX_POINT('',#288);
#953=CARTESIAN_POINT('',(3.5E0,9.E0,-2.02E1));
#954=CARTESIAN_POINT('',(3.5E0,8.E0,-1.92E1));
#955=VERTEX_POINT('',#953);
#956=VERTEX_POINT('',#954);
#957=CARTESIAN_POINT('',(-3.5E0,8.E0,-1.92E1));
#958=VERTEX_POINT('',#957);
#959=CARTESIAN_POINT('',(-3.5E0,9.E0,-2.02E1));
#960=VERTEX_POINT('',#959);
#961=CARTESIAN_POINT('',(-3.5E0,1.7E1,-2.02E1));
#962=CARTESIAN_POINT('',(3.5E0,1.7E1,-2.02E1));
#963=VERTEX_POINT('',#961);
#964=VERTEX_POINT('',#962);
#965=CARTESIAN_POINT('',(-3.5E0,1.8E1,-2.12E1));
#966=CARTESIAN_POINT('',(3.5E0,1.8E1,-2.12E1));
#967=VERTEX_POINT('',#965);
#968=VERTEX_POINT('',#966);
#969=CARTESIAN_POINT('',(0.E0,0.E0,0.E0));
#970=DIRECTION('',(0.E0,1.E0,0.E0));
#971=DIRECTION('',(1.E0,0.E0,0.E0));
#972=AXIS2_PLACEMENT_3D('',#969,#970,#971);
#973=PLANE('',#972);
#975=ORIENTED_EDGE('',*,*,#974,.F.);
#977=ORIENTED_EDGE('',*,*,#976,.F.);
#978=EDGE_LOOP('',(#975,#977));
#979=FACE_OUTER_BOUND('',#978,.F.);
#981=ORIENTED_EDGE('',*,*,#980,.F.);
#983=ORIENTED_EDGE('',*,*,#982,.F.);
#984=EDGE_LOOP('',(#981,#983));
#985=FACE_BOUND('',#984,.F.);
#987=CARTESIAN_POINT('',(0.E0,0.E0,0.E0));
#988=DIRECTION('',(0.E0,1.E0,0.E0));
#989=DIRECTION('',(1.E0,0.E0,0.E0));
#990=AXIS2_PLACEMENT_3D('',#987,#988,#989);
#991=PLANE('',#990);
#993=ORIENTED_EDGE('',*,*,#992,.F.);
#995=ORIENTED_EDGE('',*,*,#994,.F.);
#996=EDGE_LOOP('',(#993,#995));
#997=FACE_OUTER_BOUND('',#996,.F.);
#999=ORIENTED_EDGE('',*,*,#998,.F.);
#1001=ORIENTED_EDGE('',*,*,#1000,.F.);
#1002=EDGE_LOOP('',(#999,#1001));
#1003=FACE_BOUND('',#1002,.F.);
#1005=CARTESIAN_POINT('',(0.E0,2.500000099303E-1,0.E0));
#1006=DIRECTION('',(0.E0,-1.E0,0.E0));
#1007=DIRECTION('',(0.E0,0.E0,-1.E0));
#1008=AXIS2_PLACEMENT_3D('',#1005,#1006,#1007);
#1009=CONICAL_SURFACE('',#1008,3.149999990070E0,4.5E1);
#1010=ORIENTED_EDGE('',*,*,#980,.T.);
#1012=ORIENTED_EDGE('',*,*,#1011,.T.);
#1014=ORIENTED_EDGE('',*,*,#1013,.F.);
#1016=ORIENTED_EDGE('',*,*,#1015,.F.);
#1017=EDGE_LOOP('',(#1010,#1012,#1014,#1016));
#1018=FACE_OUTER_BOUND('',#1017,.F.);
#1020=CARTESIAN_POINT('',(0.E0,2.500000099303E-1,0.E0));
#1021=DIRECTION('',(0.E0,-1.E0,0.E0));
#1022=DIRECTION('',(0.E0,0.E0,-1.E0));
#1023=AXIS2_PLACEMENT_3D('',#1020,#1021,#1022);
#1024=CONICAL_SURFACE('',#1023,3.149999990070E0,4.5E1);
#1025=ORIENTED_EDGE('',*,*,#982,.T.);
#1026=ORIENTED_EDGE('',*,*,#1015,.T.);
#1028=ORIENTED_EDGE('',*,*,#1027,.F.);
#1029=ORIENTED_EDGE('',*,*,#1011,.F.);
#1030=EDGE_LOOP('',(#1025,#1026,#1028,#1029));
#1031=FACE_OUTER_BOUND('',#1030,.F.);
#1033=CARTESIAN_POINT('',(0.E0,0.E0,0.E0));
#1034=DIRECTION('',(0.E0,1.E0,0.E0));
#1035=DIRECTION('',(1.E0,0.E0,0.E0));
#1036=AXIS2_PLACEMENT_3D('',#1033,#1034,#1035);
#1037=CYLINDRICAL_SURFACE('',#1036,2.9E0);
#1039=ORIENTED_EDGE('',*,*,#1038,.T.);
#1041=ORIENTED_EDGE('',*,*,#1040,.T.);
#1042=ORIENTED_EDGE('',*,*,#1027,.T.);
#1044=ORIENTED_EDGE('',*,*,#1043,.T.);
#1045=EDGE_LOOP('',(#1039,#1041,#1042,#1044));
#1046=FACE_OUTER_BOUND('',#1045,.F.);
#1048=CARTESIAN_POINT('',(0.E0,9.749999990070E0,0.E0));
#1049=DIRECTION('',(0.E0,1.E0,0.E0));
#1050=DIRECTION('',(0.E0,0.E0,-1.E0));
#1051=AXIS2_PLACEMENT_3D('',#1048,#1049,#1050);
#1052=CONICAL_SURFACE('',#1051,3.149999990070E0,4.5E1);
#1054=ORIENTED_EDGE('',*,*,#1053,.T.);
#1056=ORIENTED_EDGE('',*,*,#1055,.T.);
#1057=ORIENTED_EDGE('',*,*,#1038,.F.);
#1059=ORIENTED_EDGE('',*,*,#1058,.F.);
#1060=EDGE_LOOP('',(#1054,#1056,#1057,#1059));
#1061=FACE_OUTER_BOUND('',#1060,.F.);
#1063=CARTESIAN_POINT('',(-2.45E1,1.E1,3.E1));
#1064=DIRECTION('',(0.E0,-1.E0,0.E0));
#1065=DIRECTION('',(1.E0,0.E0,0.E0));
#1066=AXIS2_PLACEMENT_3D('',#1063,#1064,#1065);
#1067=PLANE('',#1066);
#1069=ORIENTED_EDGE('',*,*,#1068,.F.);
#1071=ORIENTED_EDGE('',*,*,#1070,.F.);
#1072=EDGE_LOOP('',(#1069,#1071));
#1073=FACE_OUTER_BOUND('',#1072,.F.);
#1075=ORIENTED_EDGE('',*,*,#1074,.F.);
#1076=ORIENTED_EDGE('',*,*,#1053,.F.);
#1077=EDGE_LOOP('',(#1075,#1076));
#1078=FACE_BOUND('',#1077,.F.);
#1080=CARTESIAN_POINT('',(0.E0,9.750000000781E0,-3.662807510308E-14));
#1081=DIRECTION('',(0.E0,-1.E0,0.E0));
#1082=DIRECTION('',(0.E0,0.E0,-1.E0));
#1083=AXIS2_PLACEMENT_3D('',#1080,#1081,#1082);
#1084=CONICAL_SURFACE('',#1083,1.474999999922E1,4.5E1);
#1085=ORIENTED_EDGE('',*,*,#1068,.T.);
#1087=ORIENTED_EDGE('',*,*,#1086,.T.);
#1089=ORIENTED_EDGE('',*,*,#1088,.F.);
#1091=ORIENTED_EDGE('',*,*,#1090,.F.);
#1092=EDGE_LOOP('',(#1085,#1087,#1089,#1091));
#1093=FACE_OUTER_BOUND('',#1092,.F.);
#1095=CARTESIAN_POINT('',(0.E0,9.750000000781E0,2.663606788145E-14));
#1096=DIRECTION('',(0.E0,-1.E0,0.E0));
#1097=DIRECTION('',(0.E0,0.E0,-1.E0));
#1098=AXIS2_PLACEMENT_3D('',#1095,#1096,#1097);
#1099=CONICAL_SURFACE('',#1098,1.474999999922E1,4.5E1);
#1100=ORIENTED_EDGE('',*,*,#1070,.T.);
#1101=ORIENTED_EDGE('',*,*,#1090,.T.);
#1103=ORIENTED_EDGE('',*,*,#1102,.F.);
#1104=ORIENTED_EDGE('',*,*,#1086,.F.);
#1105=EDGE_LOOP('',(#1100,#1101,#1103,#1104));
#1106=FACE_OUTER_BOUND('',#1105,.F.);
#1108=CARTESIAN_POINT('',(0.E0,8.E0,0.E0));
#1109=DIRECTION('',(0.E0,1.E0,0.E0));
#1110=DIRECTION('',(1.E0,0.E0,0.E0));
#1111=AXIS2_PLACEMENT_3D('',#1108,#1109,#1110);
#1112=CYLINDRICAL_SURFACE('',#1111,1.5E1);
#1113=ORIENTED_EDGE('',*,*,#1102,.T.);
#1115=ORIENTED_EDGE('',*,*,#1114,.F.);
#1117=ORIENTED_EDGE('',*,*,#1116,.F.);
#1119=ORIENTED_EDGE('',*,*,#1118,.T.);
#1120=EDGE_LOOP('',(#1113,#1115,#1117,#1119));
#1121=FACE_OUTER_BOUND('',#1120,.F.);
#1123=CARTESIAN_POINT('',(0.E0,8.E0,0.E0));
#1124=DIRECTION('',(0.E0,1.E0,0.E0));
#1125=DIRECTION('',(1.E0,0.E0,0.E0));
#1126=AXIS2_PLACEMENT_3D('',#1123,#1124,#1125);
#1127=CYLINDRICAL_SURFACE('',#1126,1.5E1);
#1128=ORIENTED_EDGE('',*,*,#1088,.T.);
#1129=ORIENTED_EDGE('',*,*,#1118,.F.);
#1131=ORIENTED_EDGE('',*,*,#1130,.F.);
#1132=ORIENTED_EDGE('',*,*,#1114,.T.);
#1133=EDGE_LOOP('',(#1128,#1129,#1131,#1132));
#1134=FACE_OUTER_BOUND('',#1133,.F.);
#1136=CARTESIAN_POINT('',(0.E0,8.E0,0.E0));
#1137=DIRECTION('',(0.E0,1.E0,0.E0));
#1138=DIRECTION('',(1.E0,0.E0,0.E0));
#1139=AXIS2_PLACEMENT_3D('',#1136,#1137,#1138);
#1140=PLANE('',#1139);
#1142=ORIENTED_EDGE('',*,*,#1141,.T.);
#1144=ORIENTED_EDGE('',*,*,#1143,.T.);
#1146=ORIENTED_EDGE('',*,*,#1145,.F.);
#1148=ORIENTED_EDGE('',*,*,#1147,.F.);
#1150=ORIENTED_EDGE('',*,*,#1149,.T.);
#1152=ORIENTED_EDGE('',*,*,#1151,.F.);
#1154=ORIENTED_EDGE('',*,*,#1153,.F.);
#1156=ORIENTED_EDGE('',*,*,#1155,.T.);
#1157=EDGE_LOOP('',(#1142,#1144,#1146,#1148,#1150,#1152,#1154,#1156));
#1158=FACE_OUTER_BOUND('',#1157,.F.);
#1159=ORIENTED_EDGE('',*,*,#1116,.T.);
#1160=ORIENTED_EDGE('',*,*,#1130,.T.);
#1161=EDGE_LOOP('',(#1159,#1160));
#1162=FACE_BOUND('',#1161,.F.);
#1164=CARTESIAN_POINT('',(-2.842170943040E-14,8.5E0,-1.97E1));
#1165=DIRECTION('',(0.E0,7.071067811865E-1,7.071067811865E-1));
#1166=DIRECTION('',(0.E0,-7.071067811865E-1,7.071067811865E-1));
#1167=AXIS2_PLACEMENT_3D('',#1164,#1165,#1166);
#1168=PLANE('',#1167);
#1170=ORIENTED_EDGE('',*,*,#1169,.T.);
#1171=ORIENTED_EDGE('',*,*,#1141,.F.);
#1173=ORIENTED_EDGE('',*,*,#1172,.T.);
#1175=ORIENTED_EDGE('',*,*,#1174,.T.);
#1176=EDGE_LOOP('',(#1170,#1171,#1173,#1175));
#1177=FACE_OUTER_BOUND('',#1176,.F.);
#1179=CARTESIAN_POINT('',(3.5E0,1.8E1,-2.02E1));
#1180=DIRECTION('',(-1.E0,0.E0,0.E0));
#1181=DIRECTION('',(0.E0,0.E0,1.E0));
#1182=AXIS2_PLACEMENT_3D('',#1179,#1180,#1181);
#1183=PLANE('',#1182);
#1185=ORIENTED_EDGE('',*,*,#1184,.F.);
#1187=ORIENTED_EDGE('',*,*,#1186,.F.);
#1189=ORIENTED_EDGE('',*,*,#1188,.T.);
#1191=ORIENTED_EDGE('',*,*,#1190,.F.);
#1193=ORIENTED_EDGE('',*,*,#1192,.F.);
#1194=ORIENTED_EDGE('',*,*,#1143,.F.);
#1195=ORIENTED_EDGE('',*,*,#1169,.F.);
#1196=EDGE_LOOP('',(#1185,#1187,#1189,#1191,#1193,#1194,#1195));
#1197=FACE_OUTER_BOUND('',#1196,.F.);
#1199=CARTESIAN_POINT('',(-3.5E0,1.8E1,-2.02E1));
#1200=DIRECTION('',(0.E0,0.E0,1.E0));
#1201=DIRECTION('',(1.E0,0.E0,0.E0));
#1202=AXIS2_PLACEMENT_3D('',#1199,#1200,#1201);
#1203=PLANE('',#1202);
#1205=ORIENTED_EDGE('',*,*,#1204,.T.);
#1206=ORIENTED_EDGE('',*,*,#1184,.T.);
#1207=ORIENTED_EDGE('',*,*,#1174,.F.);
#1209=ORIENTED_EDGE('',*,*,#1208,.F.);
#1210=EDGE_LOOP('',(#1205,#1206,#1207,#1209));
#1211=FACE_OUTER_BOUND('',#1210,.F.);
#1213=CARTESIAN_POINT('',(-2.842170943040E-14,1.75E1,-2.07E1));
#1214=DIRECTION('',(0.E0,7.071067811865E-1,7.071067811865E-1));
#1215=DIRECTION('',(0.E0,-7.071067811865E-1,7.071067811865E-1));
#1216=AXIS2_PLACEMENT_3D('',#1213,#1214,#1215);
#1217=PLANE('',#1216);
#1218=ORIENTED_EDGE('',*,*,#1204,.F.);
#1220=ORIENTED_EDGE('',*,*,#1219,.T.);
#1222=ORIENTED_EDGE('',*,*,#1221,.T.);
#1223=ORIENTED_EDGE('',*,*,#1186,.T.);
#1224=EDGE_LOOP('',(#1218,#1220,#1222,#1223));
#1225=FACE_OUTER_BOUND('',#1224,.F.);
#1227=CARTESIAN_POINT('',(-3.5E0,1.8E1,-1.8E1));
#1228=DIRECTION('',(1.E0,0.E0,0.E0));
#1229=DIRECTION('',(0.E0,0.E0,-1.E0));
#1230=AXIS2_PLACEMENT_3D('',#1227,#1228,#1229);
#1231=PLANE('',#1230);
#1233=ORIENTED_EDGE('',*,*,#1232,.T.);
#1234=ORIENTED_EDGE('',*,*,#1219,.F.);
#1235=ORIENTED_EDGE('',*,*,#1208,.T.);
#1236=ORIENTED_EDGE('',*,*,#1172,.F.);
#1237=ORIENTED_EDGE('',*,*,#1155,.F.);
#1239=ORIENTED_EDGE('',*,*,#1238,.T.);
#1241=ORIENTED_EDGE('',*,*,#1240,.F.);
#1242=EDGE_LOOP('',(#1233,#1234,#1235,#1236,#1237,#1239,#1241));
#1243=FACE_OUTER_BOUND('',#1242,.F.);
#1245=CARTESIAN_POINT('',(0.E0,1.8E1,0.E0));
#1246=DIRECTION('',(0.E0,1.E0,0.E0));
#1247=DIRECTION('',(1.E0,0.E0,0.E0));
#1248=AXIS2_PLACEMENT_3D('',#1245,#1246,#1247);
#1249=PLANE('',#1248);
#1250=ORIENTED_EDGE('',*,*,#1221,.F.);
#1251=ORIENTED_EDGE('',*,*,#1232,.F.);
#1253=ORIENTED_EDGE('',*,*,#1252,.F.);
#1255=ORIENTED_EDGE('',*,*,#1254,.F.);
#1257=ORIENTED_EDGE('',*,*,#1256,.F.);
#1259=ORIENTED_EDGE('',*,*,#1258,.F.);
#1261=ORIENTED_EDGE('',*,*,#1260,.F.);
#1263=ORIENTED_EDGE('',*,*,#1262,.F.);
#1265=ORIENTED_EDGE('',*,*,#1264,.F.);
#1267=ORIENTED_EDGE('',*,*,#1266,.F.);
#1269=ORIENTED_EDGE('',*,*,#1268,.F.);
#1271=ORIENTED_EDGE('',*,*,#1270,.F.);
#1273=ORIENTED_EDGE('',*,*,#1272,.F.);
#1275=ORIENTED_EDGE('',*,*,#1274,.F.);
#1277=ORIENTED_EDGE('',*,*,#1276,.F.);
#1278=ORIENTED_EDGE('',*,*,#1188,.F.);
#1279=EDGE_LOOP('',(#1250,#1251,#1253,#1255,#1257,#1259,#1261,#1263,#1265,#1267,
#1269,#1271,#1273,#1275,#1277,#1278));
#1280=FACE_OUTER_BOUND('',#1279,.F.);
#1282=CARTESIAN_POINT('',(-9.392486788329E-14,1.775000028416E1,
-4.618527782441E-14));
#1283=DIRECTION('',(0.E0,1.E0,0.E0));
#1284=DIRECTION('',(0.E0,0.E0,-1.E0));
#1285=AXIS2_PLACEMENT_3D('',#1282,#1283,#1284);
#1286=CONICAL_SURFACE('',#1285,1.935000028416E1,4.5E1);
#1287=ORIENTED_EDGE('',*,*,#1240,.T.);
#1289=ORIENTED_EDGE('',*,*,#1288,.F.);
#1291=ORIENTED_EDGE('',*,*,#1290,.F.);
#1292=ORIENTED_EDGE('',*,*,#1252,.T.);
#1293=EDGE_LOOP('',(#1287,#1289,#1291,#1292));
#1294=FACE_OUTER_BOUND('',#1293,.F.);
#1296=CARTESIAN_POINT('',(-9.392486788329E-14,1.775000028416E1,
-4.618527782441E-14));
#1297=DIRECTION('',(0.E0,1.E0,0.E0));
#1298=DIRECTION('',(0.E0,0.E0,-1.E0));
#1299=AXIS2_PLACEMENT_3D('',#1296,#1297,#1298);
#1300=CONICAL_SURFACE('',#1299,1.935000028416E1,4.5E1);
#1301=ORIENTED_EDGE('',*,*,#1190,.T.);
#1302=ORIENTED_EDGE('',*,*,#1276,.T.);
#1304=ORIENTED_EDGE('',*,*,#1303,.T.);
#1306=ORIENTED_EDGE('',*,*,#1305,.F.);
#1307=EDGE_LOOP('',(#1301,#1302,#1304,#1306));
#1308=FACE_OUTER_BOUND('',#1307,.F.);
#1310=CARTESIAN_POINT('',(0.E0,8.E0,0.E0));
#1311=DIRECTION('',(0.E0,1.E0,0.E0));
#1312=DIRECTION('',(1.E0,0.E0,0.E0));
#1313=AXIS2_PLACEMENT_3D('',#1310,#1311,#1312);
#1314=CYLINDRICAL_SURFACE('',#1313,1.91E1);
#1315=ORIENTED_EDGE('',*,*,#1238,.F.);
#1316=ORIENTED_EDGE('',*,*,#1153,.T.);
#1318=ORIENTED_EDGE('',*,*,#1317,.T.);
#1320=ORIENTED_EDGE('',*,*,#1319,.T.);
#1322=ORIENTED_EDGE('',*,*,#1321,.F.);
#1324=ORIENTED_EDGE('',*,*,#1323,.T.);
#1326=ORIENTED_EDGE('',*,*,#1325,.F.);
#1328=ORIENTED_EDGE('',*,*,#1327,.F.);
#1330=ORIENTED_EDGE('',*,*,#1329,.F.);
#1332=ORIENTED_EDGE('',*,*,#1331,.F.);
#1334=ORIENTED_EDGE('',*,*,#1333,.F.);
#1336=ORIENTED_EDGE('',*,*,#1335,.T.);
#1338=ORIENTED_EDGE('',*,*,#1337,.F.);
#1339=ORIENTED_EDGE('',*,*,#1288,.T.);
#1340=EDGE_LOOP('',(#1315,#1316,#1318,#1320,#1322,#1324,#1326,#1328,#1330,#1332,
#1334,#1336,#1338,#1339));
#1341=FACE_OUTER_BOUND('',#1340,.F.);
#1343=CARTESIAN_POINT('',(0.E0,8.E0,0.E0));
#1344=DIRECTION('',(0.E0,1.E0,0.E0));
#1345=DIRECTION('',(1.E0,0.E0,0.E0));
#1346=AXIS2_PLACEMENT_3D('',#1343,#1344,#1345);
#1347=CYLINDRICAL_SURFACE('',#1346,1.91E1);
#1348=ORIENTED_EDGE('',*,*,#1192,.T.);
#1349=ORIENTED_EDGE('',*,*,#1305,.T.);
#1351=ORIENTED_EDGE('',*,*,#1350,.F.);
#1352=ORIENTED_EDGE('',*,*,#1145,.T.);
#1353=EDGE_LOOP('',(#1348,#1349,#1351,#1352));
#1354=FACE_OUTER_BOUND('',#1353,.F.);
#1356=CARTESIAN_POINT('',(-3.5E0,1.8E1,1.8E1));
#1357=DIRECTION('',(-1.E0,0.E0,0.E0));
#1358=DIRECTION('',(0.E0,0.E0,1.E0));
#1359=AXIS2_PLACEMENT_3D('',#1356,#1357,#1358);
#1360=PLANE('',#1359);
#1362=ORIENTED_EDGE('',*,*,#1361,.F.);
#1363=ORIENTED_EDGE('',*,*,#1317,.F.);
#1364=ORIENTED_EDGE('',*,*,#1151,.T.);
#1366=ORIENTED_EDGE('',*,*,#1365,.F.);
#1368=ORIENTED_EDGE('',*,*,#1367,.F.);
#1370=ORIENTED_EDGE('',*,*,#1369,.F.);
#1371=ORIENTED_EDGE('',*,*,#1270,.T.);
#1372=EDGE_LOOP('',(#1362,#1363,#1364,#1366,#1368,#1370,#1371));
#1373=FACE_OUTER_BOUND('',#1372,.F.);
#1375=CARTESIAN_POINT('',(-1.261213355974E-13,1.775000561786E1,
2.886579864025E-13));
#1376=DIRECTION('',(0.E0,1.E0,0.E0));
#1377=DIRECTION('',(0.E0,0.E0,-1.E0));
#1378=AXIS2_PLACEMENT_3D('',#1375,#1376,#1377);
#1379=CONICAL_SURFACE('',#1378,1.935000561786E1,4.5E1);
#1380=ORIENTED_EDGE('',*,*,#1361,.T.);
#1381=ORIENTED_EDGE('',*,*,#1268,.T.);
#1383=ORIENTED_EDGE('',*,*,#1382,.T.);
#1384=ORIENTED_EDGE('',*,*,#1319,.F.);
#1385=EDGE_LOOP('',(#1380,#1381,#1383,#1384));
#1386=FACE_OUTER_BOUND('',#1385,.F.);
#1388=CARTESIAN_POINT('',(-1.3E1,1.775000001302E1,1.661956678136E1));
#1389=DIRECTION('',(0.E0,-1.E0,0.E0));
#1390=DIRECTION('',(0.E0,0.E0,-1.E0));
#1391=AXIS2_PLACEMENT_3D('',#1388,#1389,#1390);
#1392=CONICAL_SURFACE('',#1391,1.749999986983E0,4.5E1);
#1393=ORIENTED_EDGE('',*,*,#1266,.T.);
#1395=ORIENTED_EDGE('',*,*,#1394,.T.);
#1397=ORIENTED_EDGE('',*,*,#1396,.F.);
#1398=ORIENTED_EDGE('',*,*,#1382,.F.);
#1399=EDGE_LOOP('',(#1393,#1395,#1397,#1398));
#1400=FACE_OUTER_BOUND('',#1399,.F.);
#1402=CARTESIAN_POINT('',(-1.475E1,1.775E1,1.749196722678E1));
#1403=DIRECTION('',(-7.071067811865E-1,7.071067811865E-1,0.E0));
#1404=DIRECTION('',(-7.071067811865E-1,-7.071067811865E-1,0.E0));
#1405=AXIS2_PLACEMENT_3D('',#1402,#1403,#1404);
#1406=PLANE('',#1405);
#1407=ORIENTED_EDGE('',*,*,#1264,.T.);
#1409=ORIENTED_EDGE('',*,*,#1408,.T.);
#1411=ORIENTED_EDGE('',*,*,#1410,.F.);
#1412=ORIENTED_EDGE('',*,*,#1394,.F.);
#1413=EDGE_LOOP('',(#1407,#1409,#1411,#1412));
#1414=FACE_OUTER_BOUND('',#1413,.F.);
#1416=CARTESIAN_POINT('',(-1.3E1,1.775000000755E1,1.836436767221E1));
#1417=DIRECTION('',(0.E0,-1.E0,0.E0));
#1418=DIRECTION('',(0.E0,0.E0,-1.E0));
#1419=AXIS2_PLACEMENT_3D('',#1416,#1417,#1418);
#1420=CONICAL_SURFACE('',#1419,1.749999992448E0,4.5E1);
#1421=ORIENTED_EDGE('',*,*,#1262,.T.);
#1423=ORIENTED_EDGE('',*,*,#1422,.T.);
#1425=ORIENTED_EDGE('',*,*,#1424,.F.);
#1426=ORIENTED_EDGE('',*,*,#1408,.F.);
#1427=EDGE_LOOP('',(#1421,#1423,#1425,#1426));
#1428=FACE_OUTER_BOUND('',#1427,.F.);
#1430=CARTESIAN_POINT('',(-2.566835632933E-13,1.775000000449E1,
-3.323122885562E-13));
#1431=DIRECTION('',(0.E0,-1.E0,0.E0));
#1432=DIRECTION('',(0.E0,0.E0,-1.E0));
#1433=AXIS2_PLACEMENT_3D('',#1430,#1431,#1432);
#1434=CONICAL_SURFACE('',#1433,2.424999999551E1,4.5E1);
#1435=ORIENTED_EDGE('',*,*,#1260,.T.);
#1437=ORIENTED_EDGE('',*,*,#1436,.T.);
#1439=ORIENTED_EDGE('',*,*,#1438,.F.);
#1441=ORIENTED_EDGE('',*,*,#1440,.F.);
#1442=ORIENTED_EDGE('',*,*,#1422,.F.);
#1443=EDGE_LOOP('',(#1435,#1437,#1439,#1441,#1442));
#1444=FACE_OUTER_BOUND('',#1443,.F.);
#1446=CARTESIAN_POINT('',(-1.3E1,1.775000000755E1,-1.836436767221E1));
#1447=DIRECTION('',(0.E0,-1.E0,0.E0));
#1448=DIRECTION('',(0.E0,0.E0,-1.E0));
#1449=AXIS2_PLACEMENT_3D('',#1446,#1447,#1448);
#1450=CONICAL_SURFACE('',#1449,1.749999992448E0,4.5E1);
#1451=ORIENTED_EDGE('',*,*,#1258,.T.);
#1453=ORIENTED_EDGE('',*,*,#1452,.T.);
#1455=ORIENTED_EDGE('',*,*,#1454,.F.);
#1456=ORIENTED_EDGE('',*,*,#1436,.F.);
#1457=EDGE_LOOP('',(#1451,#1453,#1455,#1456));
#1458=FACE_OUTER_BOUND('',#1457,.F.);
#1460=CARTESIAN_POINT('',(-1.475E1,1.775E1,-1.749196722678E1));
#1461=DIRECTION('',(-7.071067811865E-1,7.071067811865E-1,0.E0));
#1462=DIRECTION('',(-7.071067811865E-1,-7.071067811865E-1,0.E0));
#1463=AXIS2_PLACEMENT_3D('',#1460,#1461,#1462);
#1464=PLANE('',#1463);
#1465=ORIENTED_EDGE('',*,*,#1256,.T.);
#1467=ORIENTED_EDGE('',*,*,#1466,.T.);
#1469=ORIENTED_EDGE('',*,*,#1468,.F.);
#1470=ORIENTED_EDGE('',*,*,#1452,.F.);
#1471=EDGE_LOOP('',(#1465,#1467,#1469,#1470));
#1472=FACE_OUTER_BOUND('',#1471,.F.);
#1474=CARTESIAN_POINT('',(-1.3E1,1.775000001302E1,-1.661956678136E1));
#1475=DIRECTION('',(0.E0,-1.E0,0.E0));
#1476=DIRECTION('',(0.E0,0.E0,-1.E0));
#1477=AXIS2_PLACEMENT_3D('',#1474,#1475,#1476);
#1478=CONICAL_SURFACE('',#1477,1.749999986983E0,4.5E1);
#1479=ORIENTED_EDGE('',*,*,#1254,.T.);
#1480=ORIENTED_EDGE('',*,*,#1290,.T.);
#1482=ORIENTED_EDGE('',*,*,#1481,.F.);
#1483=ORIENTED_EDGE('',*,*,#1466,.F.);
#1484=EDGE_LOOP('',(#1479,#1480,#1482,#1483));
#1485=FACE_OUTER_BOUND('',#1484,.F.);
#1487=CARTESIAN_POINT('',(-1.3E1,4.14648E1,-1.661956678136E1));
#1488=DIRECTION('',(0.E0,-1.E0,0.E0));
#1489=DIRECTION('',(6.161137440758E-1,0.E0,7.876571934293E-1));
#1490=AXIS2_PLACEMENT_3D('',#1487,#1488,#1489);
#1491=CYLINDRICAL_SURFACE('',#1490,2.E0);
#1492=ORIENTED_EDGE('',*,*,#1481,.T.);
#1493=ORIENTED_EDGE('',*,*,#1337,.T.);
#1495=ORIENTED_EDGE('',*,*,#1494,.T.);
#1497=ORIENTED_EDGE('',*,*,#1496,.F.);
#1498=EDGE_LOOP('',(#1492,#1493,#1495,#1497));
#1499=FACE_OUTER_BOUND('',#1498,.F.);
#1501=CARTESIAN_POINT('',(-5.E0,1.4E1,-2.5E1));
#1502=DIRECTION('',(0.E0,1.E0,0.E0));
#1503=DIRECTION('',(-1.E0,0.E0,0.E0));
#1504=AXIS2_PLACEMENT_3D('',#1501,#1502,#1503);
#1505=PLANE('',#1504);
#1506=ORIENTED_EDGE('',*,*,#1494,.F.);
#1507=ORIENTED_EDGE('',*,*,#1335,.F.);
#1509=ORIENTED_EDGE('',*,*,#1508,.T.);
#1511=ORIENTED_EDGE('',*,*,#1510,.T.);
#1513=ORIENTED_EDGE('',*,*,#1512,.F.);
#1515=ORIENTED_EDGE('',*,*,#1514,.T.);
#1516=EDGE_LOOP('',(#1506,#1507,#1509,#1511,#1513,#1515));
#1517=FACE_OUTER_BOUND('',#1516,.F.);
#1519=CARTESIAN_POINT('',(-5.E0,1.4E1,-2.5E1));
#1520=DIRECTION('',(0.E0,1.E0,0.E0));
#1521=DIRECTION('',(-1.E0,0.E0,0.E0));
#1522=AXIS2_PLACEMENT_3D('',#1519,#1520,#1521);
#1523=PLANE('',#1522);
#1525=ORIENTED_EDGE('',*,*,#1524,.F.);
#1527=ORIENTED_EDGE('',*,*,#1526,.T.);
#1529=ORIENTED_EDGE('',*,*,#1528,.F.);
#1531=ORIENTED_EDGE('',*,*,#1530,.T.);
#1533=ORIENTED_EDGE('',*,*,#1532,.T.);
#1534=ORIENTED_EDGE('',*,*,#1323,.F.);
#1535=EDGE_LOOP('',(#1525,#1527,#1529,#1531,#1533,#1534));
#1536=FACE_OUTER_BOUND('',#1535,.F.);
#1538=CARTESIAN_POINT('',(-7.E0,1.2E1,8.846494695807E1));
#1539=DIRECTION('',(0.E0,0.E0,-1.E0));
#1540=DIRECTION('',(0.E0,1.E0,0.E0));
#1541=AXIS2_PLACEMENT_3D('',#1538,#1539,#1540);
#1542=CYLINDRICAL_SURFACE('',#1541,2.E0);
#1543=ORIENTED_EDGE('',*,*,#1508,.F.);
#1544=ORIENTED_EDGE('',*,*,#1333,.T.);
#1546=ORIENTED_EDGE('',*,*,#1545,.T.);
#1548=ORIENTED_EDGE('',*,*,#1547,.T.);
#1549=EDGE_LOOP('',(#1543,#1544,#1546,#1548));
#1550=FACE_OUTER_BOUND('',#1549,.F.);
#1552=CARTESIAN_POINT('',(-5.E0,1.E1,-2.5E1));
#1553=DIRECTION('',(1.E0,0.E0,0.E0));
#1554=DIRECTION('',(0.E0,1.E0,0.E0));
#1555=AXIS2_PLACEMENT_3D('',#1552,#1553,#1554);
#1556=PLANE('',#1555);
#1558=ORIENTED_EDGE('',*,*,#1557,.F.);
#1560=ORIENTED_EDGE('',*,*,#1559,.F.);
#1562=ORIENTED_EDGE('',*,*,#1561,.T.);
#1563=ORIENTED_EDGE('',*,*,#1545,.F.);
#1564=ORIENTED_EDGE('',*,*,#1331,.T.);
#1566=ORIENTED_EDGE('',*,*,#1565,.F.);
#1567=EDGE_LOOP('',(#1558,#1560,#1562,#1563,#1564,#1566));
#1568=FACE_OUTER_BOUND('',#1567,.F.);
#1570=CARTESIAN_POINT('',(-5.E0,1.E1,-2.5E1));
#1571=DIRECTION('',(1.E0,0.E0,0.E0));
#1572=DIRECTION('',(0.E0,1.E0,0.E0));
#1573=AXIS2_PLACEMENT_3D('',#1570,#1571,#1572);
#1574=PLANE('',#1573);
#1576=ORIENTED_EDGE('',*,*,#1575,.F.);
#1578=ORIENTED_EDGE('',*,*,#1577,.F.);
#1579=ORIENTED_EDGE('',*,*,#1327,.T.);
#1581=ORIENTED_EDGE('',*,*,#1580,.F.);
#1583=ORIENTED_EDGE('',*,*,#1582,.T.);
#1585=ORIENTED_EDGE('',*,*,#1584,.F.);
#1586=EDGE_LOOP('',(#1576,#1578,#1579,#1581,#1583,#1585));
#1587=FACE_OUTER_BOUND('',#1586,.F.);
#1589=CARTESIAN_POINT('',(-2.45E1,1.E1,3.E1));
#1590=DIRECTION('',(0.E0,-1.E0,0.E0));
#1591=DIRECTION('',(1.E0,0.E0,0.E0));
#1592=AXIS2_PLACEMENT_3D('',#1589,#1590,#1591);
#1593=PLANE('',#1592);
#1595=ORIENTED_EDGE('',*,*,#1594,.F.);
#1596=ORIENTED_EDGE('',*,*,#1575,.T.);
#1598=ORIENTED_EDGE('',*,*,#1597,.F.);
#1599=ORIENTED_EDGE('',*,*,#1557,.T.);
#1600=EDGE_LOOP('',(#1595,#1596,#1598,#1599));
#1601=FACE_OUTER_BOUND('',#1600,.F.);
#1603=CARTESIAN_POINT('',(-1.941860384771E-9,9.750001051345E0,
-5.139423137177E-9));
#1604=DIRECTION('',(0.E0,1.E0,0.E0));
#1605=DIRECTION('',(0.E0,0.E0,-1.E0));
#1606=AXIS2_PLACEMENT_3D('',#1603,#1604,#1605);
#1607=CONICAL_SURFACE('',#1606,1.935000104765E1,4.500000000044E1);
#1608=ORIENTED_EDGE('',*,*,#1329,.T.);
#1609=ORIENTED_EDGE('',*,*,#1577,.T.);
#1610=ORIENTED_EDGE('',*,*,#1594,.T.);
#1611=ORIENTED_EDGE('',*,*,#1565,.T.);
#1612=EDGE_LOOP('',(#1608,#1609,#1610,#1611));
#1613=FACE_OUTER_BOUND('',#1612,.F.);
#1615=CARTESIAN_POINT('',(3.849318520660E-13,9.749997813656E0,
-9.496831111376E-14));
#1616=DIRECTION('',(0.E0,-1.E0,0.E0));
#1617=DIRECTION('',(0.E0,0.E0,-1.E0));
#1618=AXIS2_PLACEMENT_3D('',#1615,#1616,#1617);
#1619=CONICAL_SURFACE('',#1618,2.425000218634E1,4.5E1);
#1621=ORIENTED_EDGE('',*,*,#1620,.F.);
#1623=ORIENTED_EDGE('',*,*,#1622,.F.);
#1624=ORIENTED_EDGE('',*,*,#1559,.T.);
#1625=ORIENTED_EDGE('',*,*,#1597,.T.);
#1626=ORIENTED_EDGE('',*,*,#1584,.T.);
#1627=EDGE_LOOP('',(#1621,#1623,#1624,#1625,#1626));
#1628=FACE_OUTER_BOUND('',#1627,.F.);
#1630=CARTESIAN_POINT('',(0.E0,0.E0,0.E0));
#1631=DIRECTION('',(0.E0,1.E0,0.E0));
#1632=DIRECTION('',(1.E0,0.E0,0.E0));
#1633=AXIS2_PLACEMENT_3D('',#1630,#1631,#1632);
#1634=CYLINDRICAL_SURFACE('',#1633,2.45E1);
#1636=ORIENTED_EDGE('',*,*,#1635,.T.);
#1638=ORIENTED_EDGE('',*,*,#1637,.F.);
#1639=ORIENTED_EDGE('',*,*,#1620,.T.);
#1640=ORIENTED_EDGE('',*,*,#1582,.F.);
#1642=ORIENTED_EDGE('',*,*,#1641,.F.);
#1643=ORIENTED_EDGE('',*,*,#1530,.F.);
#1645=ORIENTED_EDGE('',*,*,#1644,.F.);
#1646=ORIENTED_EDGE('',*,*,#1440,.T.);
#1648=ORIENTED_EDGE('',*,*,#1647,.F.);
#1649=EDGE_LOOP('',(#1636,#1638,#1639,#1640,#1642,#1643,#1645,#1646,#1648));
#1650=FACE_OUTER_BOUND('',#1649,.F.);
#1652=CARTESIAN_POINT('',(0.E0,2.499999996611E-1,-1.440184635797E-13));
#1653=DIRECTION('',(0.E0,1.E0,0.E0));
#1654=DIRECTION('',(0.E0,0.E0,-1.E0));
#1655=AXIS2_PLACEMENT_3D('',#1652,#1653,#1654);
#1656=CONICAL_SURFACE('',#1655,2.424999999966E1,4.5E1);
#1657=ORIENTED_EDGE('',*,*,#992,.T.);
#1659=ORIENTED_EDGE('',*,*,#1658,.T.);
#1660=ORIENTED_EDGE('',*,*,#1635,.F.);
#1662=ORIENTED_EDGE('',*,*,#1661,.F.);
#1663=EDGE_LOOP('',(#1657,#1659,#1660,#1662));
#1664=FACE_OUTER_BOUND('',#1663,.F.);
#1666=CARTESIAN_POINT('',(0.E0,2.499999996610E-1,0.E0));
#1667=DIRECTION('',(0.E0,1.E0,0.E0));
#1668=DIRECTION('',(0.E0,0.E0,-1.E0));
#1669=AXIS2_PLACEMENT_3D('',#1666,#1667,#1668);
#1670=CONICAL_SURFACE('',#1669,2.424999999966E1,4.5E1);
#1671=ORIENTED_EDGE('',*,*,#994,.T.);
#1672=ORIENTED_EDGE('',*,*,#1661,.T.);
#1674=ORIENTED_EDGE('',*,*,#1673,.F.);
#1675=ORIENTED_EDGE('',*,*,#1658,.F.);
#1676=EDGE_LOOP('',(#1671,#1672,#1674,#1675));
#1677=FACE_OUTER_BOUND('',#1676,.F.);
#1679=CARTESIAN_POINT('',(0.E0,0.E0,0.E0));
#1680=DIRECTION('',(0.E0,1.E0,0.E0));
#1681=DIRECTION('',(1.E0,0.E0,0.E0));
#1682=AXIS2_PLACEMENT_3D('',#1679,#1680,#1681);
#1683=CYLINDRICAL_SURFACE('',#1682,2.45E1);
#1684=ORIENTED_EDGE('',*,*,#1673,.T.);
#1685=ORIENTED_EDGE('',*,*,#1647,.T.);
#1686=ORIENTED_EDGE('',*,*,#1438,.T.);
#1688=ORIENTED_EDGE('',*,*,#1687,.F.);
#1689=ORIENTED_EDGE('',*,*,#1510,.F.);
#1690=ORIENTED_EDGE('',*,*,#1547,.F.);
#1691=ORIENTED_EDGE('',*,*,#1561,.F.);
#1692=ORIENTED_EDGE('',*,*,#1622,.T.);
#1693=ORIENTED_EDGE('',*,*,#1637,.T.);
#1694=EDGE_LOOP('',(#1684,#1685,#1686,#1688,#1689,#1690,#1691,#1692,#1693));
#1695=FACE_OUTER_BOUND('',#1694,.F.);
#1697=CARTESIAN_POINT('',(-1.3E1,-2.34648E1,-1.836436767221E1));
#1698=DIRECTION('',(0.E0,1.E0,0.E0));
#1699=DIRECTION('',(-5.777777777778E-1,0.E0,-8.161941187648E-1));
#1700=AXIS2_PLACEMENT_3D('',#1697,#1698,#1699);
#1701=CYLINDRICAL_SURFACE('',#1700,2.E0);
#1702=ORIENTED_EDGE('',*,*,#1454,.T.);
#1704=ORIENTED_EDGE('',*,*,#1703,.F.);
#1705=ORIENTED_EDGE('',*,*,#1512,.T.);
#1706=ORIENTED_EDGE('',*,*,#1687,.T.);
#1707=EDGE_LOOP('',(#1702,#1704,#1705,#1706));
#1708=FACE_OUTER_BOUND('',#1707,.F.);
#1710=CARTESIAN_POINT('',(-1.5E1,1.E1,3.E1));
#1711=DIRECTION('',(1.E0,0.E0,0.E0));
#1712=DIRECTION('',(0.E0,1.E0,0.E0));
#1713=AXIS2_PLACEMENT_3D('',#1710,#1711,#1712);
#1714=PLANE('',#1713);
#1715=ORIENTED_EDGE('',*,*,#1468,.T.);
#1716=ORIENTED_EDGE('',*,*,#1496,.T.);
#1717=ORIENTED_EDGE('',*,*,#1514,.F.);
#1718=ORIENTED_EDGE('',*,*,#1703,.T.);
#1719=EDGE_LOOP('',(#1715,#1716,#1717,#1718));
#1720=FACE_OUTER_BOUND('',#1719,.F.);
#1722=CARTESIAN_POINT('',(-1.5E1,1.E1,3.E1));
#1723=DIRECTION('',(1.E0,0.E0,0.E0));
#1724=DIRECTION('',(0.E0,1.E0,0.E0));
#1725=AXIS2_PLACEMENT_3D('',#1722,#1723,#1724);
#1726=PLANE('',#1725);
#1727=ORIENTED_EDGE('',*,*,#1410,.T.);
#1729=ORIENTED_EDGE('',*,*,#1728,.T.);
#1730=ORIENTED_EDGE('',*,*,#1526,.F.);
#1732=ORIENTED_EDGE('',*,*,#1731,.T.);
#1733=EDGE_LOOP('',(#1727,#1729,#1730,#1732));
#1734=FACE_OUTER_BOUND('',#1733,.F.);
#1736=CARTESIAN_POINT('',(-1.3E1,4.14648E1,1.836436767221E1));
#1737=DIRECTION('',(0.E0,-1.E0,0.E0));
#1738=DIRECTION('',(-5.777777777778E-1,0.E0,8.161941187648E-1));
#1739=AXIS2_PLACEMENT_3D('',#1736,#1737,#1738);
#1740=CYLINDRICAL_SURFACE('',#1739,2.E0);
#1741=ORIENTED_EDGE('',*,*,#1424,.T.);
#1742=ORIENTED_EDGE('',*,*,#1644,.T.);
#1743=ORIENTED_EDGE('',*,*,#1528,.T.);
#1744=ORIENTED_EDGE('',*,*,#1728,.F.);
#1745=EDGE_LOOP('',(#1741,#1742,#1743,#1744));
#1746=FACE_OUTER_BOUND('',#1745,.F.);
#1748=CARTESIAN_POINT('',(-1.3E1,-2.34648E1,1.661956678136E1));
#1749=DIRECTION('',(0.E0,1.E0,0.E0));
#1750=DIRECTION('',(6.161137440758E-1,0.E0,-7.876571934293E-1));
#1751=AXIS2_PLACEMENT_3D('',#1748,#1749,#1750);
#1752=CYLINDRICAL_SURFACE('',#1751,2.E0);
#1753=ORIENTED_EDGE('',*,*,#1396,.T.);
#1754=ORIENTED_EDGE('',*,*,#1731,.F.);
#1755=ORIENTED_EDGE('',*,*,#1524,.T.);
#1756=ORIENTED_EDGE('',*,*,#1321,.T.);
#1757=EDGE_LOOP('',(#1753,#1754,#1755,#1756));
#1758=FACE_OUTER_BOUND('',#1757,.F.);
#1760=CARTESIAN_POINT('',(-7.E0,1.2E1,8.846494695807E1));
#1761=DIRECTION('',(0.E0,0.E0,-1.E0));
#1762=DIRECTION('',(0.E0,1.E0,0.E0));
#1763=AXIS2_PLACEMENT_3D('',#1760,#1761,#1762);
#1764=CYLINDRICAL_SURFACE('',#1763,2.E0);
#1765=ORIENTED_EDGE('',*,*,#1532,.F.);
#1766=ORIENTED_EDGE('',*,*,#1641,.T.);
#1767=ORIENTED_EDGE('',*,*,#1580,.T.);
#1768=ORIENTED_EDGE('',*,*,#1325,.T.);
#1769=EDGE_LOOP('',(#1765,#1766,#1767,#1768));
#1770=FACE_OUTER_BOUND('',#1769,.F.);
#1772=CARTESIAN_POINT('',(-2.131628207280E-14,8.5E0,1.97E1));
#1773=DIRECTION('',(0.E0,7.071067811865E-1,-7.071067811865E-1));
#1774=DIRECTION('',(0.E0,-7.071067811865E-1,-7.071067811865E-1));
#1775=AXIS2_PLACEMENT_3D('',#1772,#1773,#1774);
#1776=PLANE('',#1775);
#1777=ORIENTED_EDGE('',*,*,#1365,.T.);
#1778=ORIENTED_EDGE('',*,*,#1149,.F.);
#1780=ORIENTED_EDGE('',*,*,#1779,.T.);
#1782=ORIENTED_EDGE('',*,*,#1781,.T.);
#1783=EDGE_LOOP('',(#1777,#1778,#1780,#1782));
#1784=FACE_OUTER_BOUND('',#1783,.F.);
#1786=CARTESIAN_POINT('',(3.5E0,1.8E1,2.02E1));
#1787=DIRECTION('',(1.E0,0.E0,0.E0));
#1788=DIRECTION('',(0.E0,0.E0,-1.E0));
#1789=AXIS2_PLACEMENT_3D('',#1786,#1787,#1788);
#1790=PLANE('',#1789);
#1791=ORIENTED_EDGE('',*,*,#1303,.F.);
#1792=ORIENTED_EDGE('',*,*,#1274,.T.);
#1794=ORIENTED_EDGE('',*,*,#1793,.F.);
#1796=ORIENTED_EDGE('',*,*,#1795,.T.);
#1797=ORIENTED_EDGE('',*,*,#1779,.F.);
#1798=ORIENTED_EDGE('',*,*,#1147,.T.);
#1799=ORIENTED_EDGE('',*,*,#1350,.T.);
#1800=EDGE_LOOP('',(#1791,#1792,#1794,#1796,#1797,#1798,#1799));
#1801=FACE_OUTER_BOUND('',#1800,.F.);
#1803=CARTESIAN_POINT('',(-2.131628207280E-14,1.75E1,2.07E1));
#1804=DIRECTION('',(0.E0,7.071067811865E-1,-7.071067811865E-1));
#1805=DIRECTION('',(0.E0,-7.071067811865E-1,-7.071067811865E-1));
#1806=AXIS2_PLACEMENT_3D('',#1803,#1804,#1805);
#1807=PLANE('',#1806);
#1809=ORIENTED_EDGE('',*,*,#1808,.F.);
#1810=ORIENTED_EDGE('',*,*,#1793,.T.);
#1811=ORIENTED_EDGE('',*,*,#1272,.T.);
#1812=ORIENTED_EDGE('',*,*,#1369,.T.);
#1813=EDGE_LOOP('',(#1809,#1810,#1811,#1812));
#1814=FACE_OUTER_BOUND('',#1813,.F.);
#1816=CARTESIAN_POINT('',(-3.5E0,1.8E1,2.02E1));
#1817=DIRECTION('',(0.E0,0.E0,1.E0));
#1818=DIRECTION('',(1.E0,0.E0,0.E0));
#1819=AXIS2_PLACEMENT_3D('',#1816,#1817,#1818);
#1820=PLANE('',#1819);
#1821=ORIENTED_EDGE('',*,*,#1808,.T.);
#1822=ORIENTED_EDGE('',*,*,#1367,.T.);
#1823=ORIENTED_EDGE('',*,*,#1781,.F.);
#1824=ORIENTED_EDGE('',*,*,#1795,.F.);
#1825=EDGE_LOOP('',(#1821,#1822,#1823,#1824));
#1826=FACE_OUTER_BOUND('',#1825,.F.);
#1828=CARTESIAN_POINT('',(0.E0,9.749999990070E0,0.E0));
#1829=DIRECTION('',(0.E0,1.E0,0.E0));
#1830=DIRECTION('',(0.E0,0.E0,-1.E0));
#1831=AXIS2_PLACEMENT_3D('',#1828,#1829,#1830);
#1832=CONICAL_SURFACE('',#1831,3.149999990070E0,4.5E1);
#1833=ORIENTED_EDGE('',*,*,#1074,.T.);
#1834=ORIENTED_EDGE('',*,*,#1058,.T.);
#1836=ORIENTED_EDGE('',*,*,#1835,.F.);
#1837=ORIENTED_EDGE('',*,*,#1055,.F.);
#1838=EDGE_LOOP('',(#1833,#1834,#1836,#1837));
#1839=FACE_OUTER_BOUND('',#1838,.F.);
#1841=CARTESIAN_POINT('',(0.E0,0.E0,0.E0));
#1842=DIRECTION('',(0.E0,1.E0,0.E0));
#1843=DIRECTION('',(1.E0,0.E0,0.E0));
#1844=AXIS2_PLACEMENT_3D('',#1841,#1842,#1843);
#1845=CYLINDRICAL_SURFACE('',#1844,2.9E0);
#1846=ORIENTED_EDGE('',*,*,#1835,.T.);
#1847=ORIENTED_EDGE('',*,*,#1043,.F.);
#1848=ORIENTED_EDGE('',*,*,#1013,.T.);
#1849=ORIENTED_EDGE('',*,*,#1040,.F.);
#1850=EDGE_LOOP('',(#1846,#1847,#1848,#1849));
#1851=FACE_OUTER_BOUND('',#1850,.F.);
#1853=CARTESIAN_POINT('',(0.E0,2.499999981234E-1,0.E0));
#1854=DIRECTION('',(0.E0,1.E0,0.E0));
#1855=DIRECTION('',(0.E0,0.E0,-1.E0));
#1856=AXIS2_PLACEMENT_3D('',#1853,#1854,#1855);
#1857=CONICAL_SURFACE('',#1856,1.024999999812E1,4.5E1);
#1858=ORIENTED_EDGE('',*,*,#974,.T.);
#1860=ORIENTED_EDGE('',*,*,#1859,.T.);
#1862=ORIENTED_EDGE('',*,*,#1861,.F.);
#1864=ORIENTED_EDGE('',*,*,#1863,.F.);
#1865=EDGE_LOOP('',(#1858,#1860,#1862,#1864));
#1866=FACE_OUTER_BOUND('',#1865,.F.);
#1868=CARTESIAN_POINT('',(0.E0,2.499999981234E-1,0.E0));
#1869=DIRECTION('',(0.E0,1.E0,0.E0));
#1870=DIRECTION('',(0.E0,0.E0,-1.E0));
#1871=AXIS2_PLACEMENT_3D('',#1868,#1869,#1870);
#1872=CONICAL_SURFACE('',#1871,1.024999999812E1,4.5E1);
#1873=ORIENTED_EDGE('',*,*,#976,.T.);
#1874=ORIENTED_EDGE('',*,*,#1863,.T.);
#1876=ORIENTED_EDGE('',*,*,#1875,.F.);
#1877=ORIENTED_EDGE('',*,*,#1859,.F.);
#1878=EDGE_LOOP('',(#1873,#1874,#1876,#1877));
#1879=FACE_OUTER_BOUND('',#1878,.F.);
#1881=CARTESIAN_POINT('',(1.034214221880E-14,6.3E0,0.E0));
#1882=DIRECTION('',(0.E0,-1.E0,0.E0));
#1883=DIRECTION('',(-1.E0,0.E0,0.E0));
#1884=AXIS2_PLACEMENT_3D('',#1881,#1882,#1883);
#1885=CYLINDRICAL_SURFACE('',#1884,1.05E1);
#1886=ORIENTED_EDGE('',*,*,#1875,.T.);
#1888=ORIENTED_EDGE('',*,*,#1887,.F.);
#1890=ORIENTED_EDGE('',*,*,#1889,.T.);
#1892=ORIENTED_EDGE('',*,*,#1891,.T.);
#1893=EDGE_LOOP('',(#1886,#1888,#1890,#1892));
#1894=FACE_OUTER_BOUND('',#1893,.F.);
#1896=CARTESIAN_POINT('',(1.034214221880E-14,6.3E0,0.E0));
#1897=DIRECTION('',(0.E0,-1.E0,0.E0));
#1898=DIRECTION('',(-1.E0,0.E0,0.E0));
#1899=AXIS2_PLACEMENT_3D('',#1896,#1897,#1898);
#1900=CYLINDRICAL_SURFACE('',#1899,1.05E1);
#1901=ORIENTED_EDGE('',*,*,#1861,.T.);
#1902=ORIENTED_EDGE('',*,*,#1891,.F.);
#1904=ORIENTED_EDGE('',*,*,#1903,.F.);
#1905=ORIENTED_EDGE('',*,*,#1887,.T.);
#1906=EDGE_LOOP('',(#1901,#1902,#1904,#1905));
#1907=FACE_OUTER_BOUND('',#1906,.F.);
#1909=CARTESIAN_POINT('',(1.028703311284E-14,6.E0,0.E0));
#1910=DIRECTION('',(0.E0,-1.E0,0.E0));
#1911=DIRECTION('',(-1.E0,0.E0,0.E0));
#1912=AXIS2_PLACEMENT_3D('',#1909,#1910,#1911);
#1913=PLANE('',#1912);
#1915=ORIENTED_EDGE('',*,*,#1914,.T.);
#1917=ORIENTED_EDGE('',*,*,#1916,.F.);
#1918=EDGE_LOOP('',(#1915,#1917));
#1919=FACE_OUTER_BOUND('',#1918,.F.);
#1920=ORIENTED_EDGE('',*,*,#1903,.T.);
#1921=ORIENTED_EDGE('',*,*,#1889,.F.);
#1922=EDGE_LOOP('',(#1920,#1921));
#1923=FACE_BOUND('',#1922,.F.);
#1925=CARTESIAN_POINT('',(1.034214221880E-14,6.3E0,0.E0));
#1926=DIRECTION('',(0.E0,-1.E0,0.E0));
#1927=DIRECTION('',(-1.E0,0.E0,0.E0));
#1928=AXIS2_PLACEMENT_3D('',#1925,#1926,#1927);
#1929=CYLINDRICAL_SURFACE('',#1928,1.85E1);
#1931=ORIENTED_EDGE('',*,*,#1930,.T.);
#1933=ORIENTED_EDGE('',*,*,#1932,.T.);
#1934=ORIENTED_EDGE('',*,*,#1914,.F.);
#1936=ORIENTED_EDGE('',*,*,#1935,.F.);
#1937=EDGE_LOOP('',(#1931,#1933,#1934,#1936));
#1938=FACE_OUTER_BOUND('',#1937,.F.);
#1940=CARTESIAN_POINT('',(1.065814103640E-14,2.500000007230E-1,0.E0));
#1941=DIRECTION('',(0.E0,-1.E0,0.E0));
#1942=DIRECTION('',(0.E0,0.E0,-1.E0));
#1943=AXIS2_PLACEMENT_3D('',#1940,#1941,#1942);
#1944=CONICAL_SURFACE('',#1943,1.874999999928E1,4.5E1);
#1945=ORIENTED_EDGE('',*,*,#1000,.T.);
#1947=ORIENTED_EDGE('',*,*,#1946,.T.);
#1948=ORIENTED_EDGE('',*,*,#1930,.F.);
#1950=ORIENTED_EDGE('',*,*,#1949,.F.);
#1951=EDGE_LOOP('',(#1945,#1947,#1948,#1950));
#1952=FACE_OUTER_BOUND('',#1951,.F.);
#1954=CARTESIAN_POINT('',(1.065814103640E-14,2.500000007230E-1,0.E0));
#1955=DIRECTION('',(0.E0,-1.E0,0.E0));
#1956=DIRECTION('',(0.E0,0.E0,-1.E0));
#1957=AXIS2_PLACEMENT_3D('',#1954,#1955,#1956);
#1958=CONICAL_SURFACE('',#1957,1.874999999928E1,4.5E1);
#1959=ORIENTED_EDGE('',*,*,#998,.T.);
#1960=ORIENTED_EDGE('',*,*,#1949,.T.);
#1962=ORIENTED_EDGE('',*,*,#1961,.F.);
#1963=ORIENTED_EDGE('',*,*,#1946,.F.);
#1964=EDGE_LOOP('',(#1959,#1960,#1962,#1963));
#1965=FACE_OUTER_BOUND('',#1964,.F.);
#1967=CARTESIAN_POINT('',(1.034214221880E-14,6.3E0,0.E0));
#1968=DIRECTION('',(0.E0,-1.E0,0.E0));
#1969=DIRECTION('',(-1.E0,0.E0,0.E0));
#1970=AXIS2_PLACEMENT_3D('',#1967,#1968,#1969);
#1971=CYLINDRICAL_SURFACE('',#1970,1.85E1);
#1972=ORIENTED_EDGE('',*,*,#1961,.T.);
#1973=ORIENTED_EDGE('',*,*,#1935,.T.);
#1974=ORIENTED_EDGE('',*,*,#1916,.T.);
#1975=ORIENTED_EDGE('',*,*,#1932,.F.);
#1976=EDGE_LOOP('',(#1972,#1973,#1974,#1975));
#1977=FACE_OUTER_BOUND('',#1976,.F.);
#1983=PLANE_ANGLE_MEASURE_WITH_UNIT(PLANE_ANGLE_MEASURE(1.745329251994E-2),
#1982);
#1984=(CONVERSION_BASED_UNIT('DEGREE',#1983)NAMED_UNIT(*)PLANE_ANGLE_UNIT());
#1986=UNCERTAINTY_MEASURE_WITH_UNIT(LENGTH_MEASURE(9.906E-3),#1981,
'distance_accuracy_value',
'Maximum model space distance between geometric entities at asserted connectivities');
#1989=APPLICATION_CONTEXT('automotive_design');
#1990=APPLICATION_PROTOCOL_DEFINITION('international standard',
'automotive_design',2001,#1989);
#1991=PRODUCT_DEFINITION_CONTEXT('part definition',#1989,'design');
#1992=PRODUCT_CONTEXT('',#1989,'mechanical');
#1993=PRODUCT('PRT0004','PRT0004','NOT SPECIFIED',(#1992));
#1994=PRODUCT_DEFINITION_FORMATION('12','LAST_VERSION',#1993);
#2002=DERIVED_UNIT_ELEMENT(#2001,2.E0);
#2003=DERIVED_UNIT((#2002));
#2004=MEASURE_REPRESENTATION_ITEM('surface area measure',AREA_MEASURE(
8.506678836435E3),#2003);
#2009=DERIVED_UNIT_ELEMENT(#2008,3.E0);
#2010=DERIVED_UNIT((#2009));
#2011=MEASURE_REPRESENTATION_ITEM('volume measure',VOLUME_MEASURE(
1.694167638345E4),#2010);
#2015=CARTESIAN_POINT('centre point',(2.101388387228E0,7.319461914840E0,
5.509915029972E-7));
#2020=DERIVED_UNIT_ELEMENT(#2019,2.E0);
#2021=DERIVED_UNIT((#2020));
#2022=MEASURE_REPRESENTATION_ITEM('surface area measure',AREA_MEASURE(
8.506678836435E3),#2021);
#2027=DERIVED_UNIT_ELEMENT(#2026,3.E0);
#2028=DERIVED_UNIT((#2027));
#2029=MEASURE_REPRESENTATION_ITEM('volume measure',VOLUME_MEASURE(
1.694167638345E4),#2028);
#2033=CARTESIAN_POINT('centre point',(2.101388387228E0,7.319461914840E0,
5.509915029972E-7));
#2038=PRODUCT_RELATED_PRODUCT_CATEGORY('part','',(#1993));
#1=COLOUR_RGB('',0.E0,5.803921568627E-1,8.E-1);
#2=COLOUR_RGB('',0.E0,7.098039215686E-1,6.588235294118E-1);
#3=COLOUR_RGB('',0.E0,7.450980392157E-1,9.215686274510E-1);
#4=DRAUGHTING_PRE_DEFINED_COLOUR('green');
#5=COLOUR_RGB('',1.1E-2,1.2E-2,1.E0);
#6=COLOUR_RGB('',1.725490196078E-1,1.725490196078E-1,1.725490196078E-1);
#7=COLOUR_RGB('',2.E-1,3.019607843137E-1,1.E0);
#8=COLOUR_RGB('',2.156862745098E-1,0.E0,3.725490196078E-1);
#9=COLOUR_RGB('',4.1E-1,2.61589E-1,1.12848E-1);
#10=COLOUR_RGB('',4.705882352941E-1,3.137254901961E-1,3.333333333333E-1);
#11=COLOUR_RGB('',5.04854E-1,1.5455E-2,1.5455E-2);
#12=COLOUR_RGB('',6.196078431373E-1,0.E0,5.490196078431E-1);
#13=COLOUR_RGB('',6.352941176471E-1,1.411764705882E-1,7.490196078431E-1);
#14=COLOUR_RGB('',6.35294E-1,6.86275E-1,7.4902E-1);
#15=COLOUR_RGB('',6.352941176471E-1,8.588235294118E-1,9.019607843137E-2);
#16=COLOUR_RGB('',6.40777E-1,6.40777E-1,6.40777E-1);
#17=COLOUR_RGB('',6.69062E-1,6.69903E-1,6.55217E-1);
#18=COLOUR_RGB('',8.039215686275E-1,5.882352941176E-1,1.960784313725E-1);
#19=COLOUR_RGB('',8.117647058824E-1,6.117647058824E-1,0.E0);
#20=COLOUR_RGB('',9.21569E-1,7.05882E-1,4.70588E-1);
#21=COLOUR_RGB('',9.294117647059E-1,3.607843137255E-1,8.392156862745E-1);
#22=COLOUR_RGB('',9.490196078431E-1,2.196078431373E-1,8.117647058824E-1);
#23=COLOUR_RGB('',9.882352941176E-1,1.098039215686E-1,7.843137254902E-2);
#24=DRAUGHTING_PRE_DEFINED_COLOUR('red');
#25=COLOUR_RGB('',1.E0,5.607843137255E-1,7.803921568627E-1);
#26=COLOUR_RGB('',1.E0,6.549019607843E-1,0.E0);
#27=DRAUGHTING_PRE_DEFINED_COLOUR('yellow');
#28=COLOUR_RGB('',1.E0,1.E0,5.3E-1);
#29=COLOUR_RGB('',1.E0,1.E0,9.49E-1);
#30=DRAUGHTING_PRE_DEFINED_COLOUR('white');
#35=CIRCLE('',#34,3.4E0);
#40=CIRCLE('',#39,3.4E0);
#45=CIRCLE('',#44,1.E1);
#50=CIRCLE('',#49,1.E1);
#55=CIRCLE('',#54,1.9E1);
#60=CIRCLE('',#59,1.9E1);
#65=CIRCLE('',#64,2.4E1);
#70=CIRCLE('',#69,2.4E1);
#83=CIRCLE('',#82,2.9E0);
#92=CIRCLE('',#91,2.9E0);
#105=CIRCLE('',#104,1.45E1);
#110=CIRCLE('',#109,1.45E1);
#115=CIRCLE('',#114,3.4E0);
#120=CIRCLE('',#119,3.4E0);
#133=CIRCLE('',#132,1.5E1);
#142=CIRCLE('',#141,1.5E1);
#151=CIRCLE('',#150,1.5E1);
#156=CIRCLE('',#155,1.5E1);
#229=CIRCLE('',#228,1.96E1);
#234=CIRCLE('',#233,1.5E0);
#243=CIRCLE('',#242,1.5E0);
#248=CIRCLE('',#247,1.5E0);
#257=CIRCLE('',#256,1.5E0);
#262=CIRCLE('',#261,1.96E1);
#271=CIRCLE('',#270,1.96E1);
#278=B_SPLINE_CURVE_WITH_KNOTS('',3,(#272,#273,#274,#275,#276,#277),
.UNSPECIFIED.,.F.,.F.,(4,1,1,4),(0.E0,3.333333333333E-1,6.666666666667E-1,1.E0),
.UNSPECIFIED.);
#289=B_SPLINE_CURVE_WITH_KNOTS('',3,(#283,#284,#285,#286,#287,#288),
.UNSPECIFIED.,.F.,.F.,(4,1,1,4),(0.E0,3.333333333333E-1,6.666666666667E-1,1.E0),
.UNSPECIFIED.);
#298=CIRCLE('',#297,1.91E1);
#307=CIRCLE('',#306,1.91E1);
#316=CIRCLE('',#315,1.91E1);
#321=CIRCLE('',#320,1.91E1);
#330=CIRCLE('',#329,1.91E1);
#339=CIRCLE('',#338,1.91E1);
#348=CIRCLE('',#347,1.91E1);
#354=B_SPLINE_CURVE_WITH_KNOTS('',3,(#349,#350,#351,#352,#353),.UNSPECIFIED.,
.F.,.F.,(4,1,4),(0.E0,5.E-1,1.E0),.UNSPECIFIED.);
#379=CIRCLE('',#378,2.4E1);
#400=CIRCLE('',#399,2.E0);
#405=CIRCLE('',#404,2.E0);
#414=CIRCLE('',#413,2.E0);
#419=CIRCLE('',#418,2.E0);
#424=CIRCLE('',#423,2.E0);
#438=B_SPLINE_CURVE_WITH_KNOTS('',3,(#429,#430,#431,#432,#433,#434,#435,#436,
#437),.UNSPECIFIED.,.F.,.F.,(4,1,1,1,1,1,4),(0.E0,1.666666666667E-1,
3.333333333333E-1,5.E-1,6.666666666667E-1,8.333333333333E-1,1.E0),
.UNSPECIFIED.);
#448=B_SPLINE_CURVE_WITH_KNOTS('',3,(#439,#440,#441,#442,#443,#444,#445,#446,
#447),.UNSPECIFIED.,.F.,.F.,(4,1,1,1,1,1,4),(0.E0,1.666666666667E-1,
3.333333333333E-1,5.E-1,6.666666666667E-1,8.333333333333E-1,1.E0),
.UNSPECIFIED.);
#485=CIRCLE('',#484,1.909999999850E1);
#491=B_SPLINE_CURVE_WITH_KNOTS('',3,(#486,#487,#488,#489,#490),.UNSPECIFIED.,
.F.,.F.,(4,1,4),(0.E0,5.E-1,1.E0),.UNSPECIFIED.);
#496=CIRCLE('',#495,1.959999999630E1);
#502=B_SPLINE_CURVE_WITH_KNOTS('',3,(#497,#498,#499,#500,#501),.UNSPECIFIED.,
.F.,.F.,(4,1,4),(0.E0,5.E-1,1.E0),.UNSPECIFIED.);
#508=B_SPLINE_CURVE_WITH_KNOTS('',3,(#503,#504,#505,#506,#507),.UNSPECIFIED.,
.F.,.F.,(4,1,4),(0.E0,5.E-1,1.E0),.UNSPECIFIED.);
#513=CIRCLE('',#512,2.4E1);
#519=B_SPLINE_CURVE_WITH_KNOTS('',3,(#514,#515,#516,#517,#518),.UNSPECIFIED.,
.F.,.F.,(4,1,4),(0.E0,5.E-1,1.E0),.UNSPECIFIED.);
#524=CIRCLE('',#523,2.45E1);
#529=CIRCLE('',#528,2.45E1);
#534=CIRCLE('',#533,2.45E1);
#543=CIRCLE('',#542,2.45E1);
#556=CIRCLE('',#555,2.45E1);
#565=CIRCLE('',#564,2.45E1);
#574=CIRCLE('',#573,2.45E1);
#579=CIRCLE('',#578,2.45E1);
#588=CIRCLE('',#587,2.E0);
#625=CIRCLE('',#624,2.E0);
#630=CIRCLE('',#629,2.E0);
#640=B_SPLINE_CURVE_WITH_KNOTS('',3,(#631,#632,#633,#634,#635,#636,#637,#638,
#639),.UNSPECIFIED.,.F.,.F.,(4,1,1,1,1,1,4),(0.E0,1.666666666667E-1,
3.333333333333E-1,5.E-1,6.666666666667E-1,8.333333333333E-1,1.E0),
.UNSPECIFIED.);
#650=B_SPLINE_CURVE_WITH_KNOTS('',3,(#641,#642,#643,#644,#645,#646,#647,#648,
#649),.UNSPECIFIED.,.F.,.F.,(4,1,1,1,1,1,4),(0.E0,1.666666666667E-1,
3.333333333333E-1,5.E-1,6.666666666667E-1,8.333333333333E-1,1.E0),
.UNSPECIFIED.);
#656=B_SPLINE_CURVE_WITH_KNOTS('',3,(#651,#652,#653,#654,#655),.UNSPECIFIED.,
.F.,.F.,(4,1,4),(0.E0,5.E-1,1.E0),.UNSPECIFIED.);
#697=CIRCLE('',#696,2.9E0);
#702=CIRCLE('',#701,2.9E0);
#715=CIRCLE('',#714,1.05E1);
#724=CIRCLE('',#723,1.05E1);
#733=CIRCLE('',#732,1.05E1);
#738=CIRCLE('',#737,1.05E1);
#743=CIRCLE('',#742,1.85E1);
#748=CIRCLE('',#747,1.85E1);
#753=CIRCLE('',#752,1.85E1);
#774=CIRCLE('',#773,1.85E1);
#974=EDGE_CURVE('',#865,#866,#45,.T.);
#976=EDGE_CURVE('',#866,#865,#50,.T.);
#980=EDGE_CURVE('',#857,#858,#35,.T.);
#982=EDGE_CURVE('',#858,#857,#40,.T.);
#986=ADVANCED_FACE('',(#979,#985),#973,.F.);
#992=EDGE_CURVE('',#881,#882,#65,.T.);
#994=EDGE_CURVE('',#882,#881,#70,.T.);
#998=EDGE_CURVE('',#873,#874,#55,.T.);
#1000=EDGE_CURVE('',#874,#873,#60,.T.);
#1004=ADVANCED_FACE('',(#997,#1003),#991,.F.);
#1011=EDGE_CURVE('',#858,#862,#78,.T.);
#1013=EDGE_CURVE('',#861,#862,#702,.T.);
#1015=EDGE_CURVE('',#857,#861,#74,.T.);
#1019=ADVANCED_FACE('',(#1018),#1009,.F.);
#1027=EDGE_CURVE('',#862,#861,#92,.T.);
#1032=ADVANCED_FACE('',(#1031),#1024,.F.);
#1038=EDGE_CURVE('',#854,#853,#83,.T.);
#1040=EDGE_CURVE('',#853,#862,#87,.T.);
#1043=EDGE_CURVE('',#861,#854,#96,.T.);
#1047=ADVANCED_FACE('',(#1046),#1037,.F.);
#1053=EDGE_CURVE('',#850,#849,#120,.T.);
#1055=EDGE_CURVE('',#849,#853,#692,.T.);
#1058=EDGE_CURVE('',#850,#854,#100,.T.);
#1062=ADVANCED_FACE('',(#1061),#1052,.F.);
#1068=EDGE_CURVE('',#841,#842,#105,.T.);
#1070=EDGE_CURVE('',#842,#841,#110,.T.);
#1074=EDGE_CURVE('',#849,#850,#115,.T.);
#1079=ADVANCED_FACE('',(#1073,#1078),#1067,.F.);
#1086=EDGE_CURVE('',#842,#846,#128,.T.);
#1088=EDGE_CURVE('',#845,#846,#142,.T.);
#1090=EDGE_CURVE('',#841,#845,#124,.T.);
#1094=ADVANCED_FACE('',(#1093),#1084,.T.);
#1102=EDGE_CURVE('',#846,#845,#133,.T.);
#1107=ADVANCED_FACE('',(#1106),#1099,.T.);
#1114=EDGE_CURVE('',#786,#845,#146,.T.);
#1116=EDGE_CURVE('',#785,#786,#151,.T.);
#1118=EDGE_CURVE('',#785,#846,#137,.T.);
#1122=ADVANCED_FACE('',(#1121),#1112,.T.);
#1130=EDGE_CURVE('',#786,#785,#156,.T.);
#1135=ADVANCED_FACE('',(#1134),#1127,.T.);
#1141=EDGE_CURVE('',#958,#956,#160,.T.);
#1143=EDGE_CURVE('',#956,#949,#164,.T.);
#1145=EDGE_CURVE('',#838,#949,#348,.T.);
#1147=EDGE_CURVE('',#832,#838,#168,.T.);
#1149=EDGE_CURVE('',#832,#830,#172,.T.);
#1151=EDGE_CURVE('',#836,#830,#176,.T.);
#1153=EDGE_CURVE('',#945,#836,#298,.T.);
#1155=EDGE_CURVE('',#945,#958,#180,.T.);
#1163=ADVANCED_FACE('',(#1158,#1162),#1140,.T.);
#1169=EDGE_CURVE('',#955,#956,#192,.T.);
#1172=EDGE_CURVE('',#958,#960,#220,.T.);
#1174=EDGE_CURVE('',#960,#955,#200,.T.);
#1178=ADVANCED_FACE('',(#1177),#1168,.T.);
#1184=EDGE_CURVE('',#964,#955,#184,.T.);
#1186=EDGE_CURVE('',#968,#964,#212,.T.);
#1188=EDGE_CURVE('',#968,#952,#188,.T.);
#1190=EDGE_CURVE('',#950,#952,#289,.T.);
#1192=EDGE_CURVE('',#949,#950,#334,.T.);
#1198=ADVANCED_FACE('',(#1197),#1183,.T.);
#1204=EDGE_CURVE('',#963,#964,#196,.T.);
#1208=EDGE_CURVE('',#963,#960,#204,.T.);
#1212=ADVANCED_FACE('',(#1211),#1203,.T.);
#1219=EDGE_CURVE('',#963,#967,#208,.T.);
#1221=EDGE_CURVE('',#967,#968,#224,.T.);
#1226=ADVANCED_FACE('',(#1225),#1217,.T.);
#1232=EDGE_CURVE('',#951,#967,#216,.T.);
#1238=EDGE_CURVE('',#945,#946,#293,.T.);
#1240=EDGE_CURVE('',#951,#946,#278,.T.);
#1244=ADVANCED_FACE('',(#1243),#1231,.T.);
#1252=EDGE_CURVE('',#912,#951,#229,.T.);
#1254=EDGE_CURVE('',#911,#912,#234,.T.);
#1256=EDGE_CURVE('',#918,#911,#238,.T.);
#1258=EDGE_CURVE('',#922,#918,#243,.T.);
#1260=EDGE_CURVE('',#930,#922,#379,.T.);
#1262=EDGE_CURVE('',#929,#930,#248,.T.);
#1264=EDGE_CURVE('',#934,#929,#252,.T.);
#1266=EDGE_CURVE('',#938,#934,#257,.T.);
#1268=EDGE_CURVE('',#942,#938,#262,.T.);
#1270=EDGE_CURVE('',#826,#942,#362,.T.);
#1272=EDGE_CURVE('',#825,#826,#266,.T.);
#1274=EDGE_CURVE('',#907,#825,#660,.T.);
#1276=EDGE_CURVE('',#952,#907,#271,.T.);
#1281=ADVANCED_FACE('',(#1280),#1249,.T.);
#1288=EDGE_CURVE('',#916,#946,#330,.T.);
#1290=EDGE_CURVE('',#912,#916,#282,.T.);
#1295=ADVANCED_FACE('',(#1294),#1286,.F.);
#1303=EDGE_CURVE('',#907,#908,#656,.T.);
#1305=EDGE_CURVE('',#950,#908,#339,.T.);
#1309=ADVANCED_FACE('',(#1308),#1300,.F.);
#1317=EDGE_CURVE('',#836,#941,#302,.T.);
#1319=EDGE_CURVE('',#941,#940,#307,.T.);
#1321=EDGE_CURVE('',#794,#940,#311,.T.);
#1323=EDGE_CURVE('',#794,#802,#316,.T.);
#1325=EDGE_CURVE('',#806,#802,#650,.T.);
#1327=EDGE_CURVE('',#902,#806,#472,.T.);
#1329=EDGE_CURVE('',#901,#902,#485,.T.);
#1331=EDGE_CURVE('',#813,#901,#464,.T.);
#1333=EDGE_CURVE('',#809,#813,#438,.T.);
#1335=EDGE_CURVE('',#809,#789,#321,.T.);
#1337=EDGE_CURVE('',#916,#789,#325,.T.);
#1342=ADVANCED_FACE('',(#1341),#1314,.F.);
#1350=EDGE_CURVE('',#838,#908,#343,.T.);
#1355=ADVANCED_FACE('',(#1354),#1347,.F.);
#1361=EDGE_CURVE('',#941,#942,#354,.T.);
#1365=EDGE_CURVE('',#829,#830,#358,.T.);
#1367=EDGE_CURVE('',#822,#829,#684,.T.);
#1369=EDGE_CURVE('',#826,#822,#676,.T.);
#1374=ADVANCED_FACE('',(#1373),#1360,.F.);
#1382=EDGE_CURVE('',#938,#940,#366,.T.);
#1387=ADVANCED_FACE('',(#1386),#1379,.F.);
#1394=EDGE_CURVE('',#934,#936,#370,.T.);
#1396=EDGE_CURVE('',#940,#936,#630,.T.);
#1401=ADVANCED_FACE('',(#1400),#1392,.T.);
#1408=EDGE_CURVE('',#929,#932,#374,.T.);
#1410=EDGE_CURVE('',#936,#932,#608,.T.);
#1415=ADVANCED_FACE('',(#1414),#1406,.T.);
#1422=EDGE_CURVE('',#930,#926,#383,.T.);
#1424=EDGE_CURVE('',#932,#926,#625,.T.);
#1429=ADVANCED_FACE('',(#1428),#1420,.T.);
#1436=EDGE_CURVE('',#922,#924,#387,.T.);
#1438=EDGE_CURVE('',#888,#924,#565,.T.);
#1440=EDGE_CURVE('',#926,#888,#543,.T.);
#1445=ADVANCED_FACE('',(#1444),#1434,.T.);
#1452=EDGE_CURVE('',#918,#920,#391,.T.);
#1454=EDGE_CURVE('',#924,#920,#588,.T.);
#1459=ADVANCED_FACE('',(#1458),#1450,.T.);
#1466=EDGE_CURVE('',#911,#915,#395,.T.);
#1468=EDGE_CURVE('',#920,#915,#592,.T.);
#1473=ADVANCED_FACE('',(#1472),#1464,.T.);
#1481=EDGE_CURVE('',#915,#916,#400,.T.);
#1486=ADVANCED_FACE('',(#1485),#1478,.T.);
#1494=EDGE_CURVE('',#789,#790,#405,.T.);
#1496=EDGE_CURVE('',#915,#790,#596,.T.);
#1500=ADVANCED_FACE('',(#1499),#1491,.T.);
#1508=EDGE_CURVE('',#809,#810,#409,.T.);
#1510=EDGE_CURVE('',#810,#816,#574,.T.);
#1512=EDGE_CURVE('',#796,#816,#414,.T.);
#1514=EDGE_CURVE('',#796,#790,#600,.T.);
#1518=ADVANCED_FACE('',(#1517),#1505,.F.);
#1524=EDGE_CURVE('',#793,#794,#419,.T.);
#1526=EDGE_CURVE('',#793,#798,#616,.T.);
#1528=EDGE_CURVE('',#818,#798,#424,.T.);
#1530=EDGE_CURVE('',#818,#801,#534,.T.);
#1532=EDGE_CURVE('',#801,#802,#428,.T.);
#1537=ADVANCED_FACE('',(#1536),#1523,.F.);
#1545=EDGE_CURVE('',#813,#814,#460,.T.);
#1547=EDGE_CURVE('',#814,#810,#448,.T.);
#1551=ADVANCED_FACE('',(#1550),#1542,.F.);
#1557=EDGE_CURVE('',#893,#894,#452,.T.);
#1559=EDGE_CURVE('',#906,#893,#508,.T.);
#1561=EDGE_CURVE('',#906,#814,#456,.T.);
#1565=EDGE_CURVE('',#894,#901,#502,.T.);
#1569=ADVANCED_FACE('',(#1568),#1556,.F.);
#1575=EDGE_CURVE('',#897,#898,#468,.T.);
#1577=EDGE_CURVE('',#902,#897,#491,.T.);
#1580=EDGE_CURVE('',#805,#806,#476,.T.);
#1582=EDGE_CURVE('',#805,#904,#480,.T.);
#1584=EDGE_CURVE('',#898,#904,#519,.T.);
#1588=ADVANCED_FACE('',(#1587),#1574,.F.);
#1594=EDGE_CURVE('',#897,#894,#496,.T.);
#1597=EDGE_CURVE('',#893,#898,#513,.T.);
#1602=ADVANCED_FACE('',(#1601),#1593,.F.);
#1614=ADVANCED_FACE('',(#1613),#1607,.F.);
#1620=EDGE_CURVE('',#890,#904,#529,.T.);
#1622=EDGE_CURVE('',#906,#890,#579,.T.);
#1629=ADVANCED_FACE('',(#1628),#1619,.T.);
#1635=EDGE_CURVE('',#885,#886,#524,.T.);
#1637=EDGE_CURVE('',#890,#886,#583,.T.);
#1641=EDGE_CURVE('',#801,#805,#640,.T.);
#1644=EDGE_CURVE('',#926,#818,#538,.T.);
#1647=EDGE_CURVE('',#885,#888,#560,.T.);
#1651=ADVANCED_FACE('',(#1650),#1634,.T.);
#1658=EDGE_CURVE('',#882,#886,#551,.T.);
#1661=EDGE_CURVE('',#881,#885,#547,.T.);
#1665=ADVANCED_FACE('',(#1664),#1656,.T.);
#1673=EDGE_CURVE('',#886,#885,#556,.T.);
#1678=ADVANCED_FACE('',(#1677),#1670,.T.);
#1687=EDGE_CURVE('',#816,#924,#569,.T.);
#1696=ADVANCED_FACE('',(#1695),#1683,.T.);
#1703=EDGE_CURVE('',#796,#920,#604,.T.);
#1709=ADVANCED_FACE('',(#1708),#1701,.T.);
#1721=ADVANCED_FACE('',(#1720),#1714,.F.);
#1728=EDGE_CURVE('',#932,#798,#612,.T.);
#1731=EDGE_CURVE('',#793,#936,#620,.T.);
#1735=ADVANCED_FACE('',(#1734),#1726,.F.);
#1747=ADVANCED_FACE('',(#1746),#1740,.T.);
#1759=ADVANCED_FACE('',(#1758),#1752,.T.);
#1771=ADVANCED_FACE('',(#1770),#1764,.F.);
#1779=EDGE_CURVE('',#832,#834,#668,.T.);
#1781=EDGE_CURVE('',#834,#829,#688,.T.);
#1785=ADVANCED_FACE('',(#1784),#1776,.T.);
#1793=EDGE_CURVE('',#821,#825,#672,.T.);
#1795=EDGE_CURVE('',#821,#834,#664,.T.);
#1802=ADVANCED_FACE('',(#1801),#1790,.F.);
#1808=EDGE_CURVE('',#821,#822,#680,.T.);
#1815=ADVANCED_FACE('',(#1814),#1807,.T.);
#1827=ADVANCED_FACE('',(#1826),#1820,.F.);
#1835=EDGE_CURVE('',#853,#854,#697,.T.);
#1840=ADVANCED_FACE('',(#1839),#1832,.F.);
#1852=ADVANCED_FACE('',(#1851),#1845,.F.);
#1859=EDGE_CURVE('',#866,#870,#710,.T.);
#1861=EDGE_CURVE('',#869,#870,#733,.T.);
#1863=EDGE_CURVE('',#865,#869,#706,.T.);
#1867=ADVANCED_FACE('',(#1866),#1857,.T.);
#1875=EDGE_CURVE('',#870,#869,#715,.T.);
#1880=ADVANCED_FACE('',(#1879),#1872,.T.);
#1887=EDGE_CURVE('',#781,#869,#719,.T.);
#1889=EDGE_CURVE('',#781,#782,#724,.T.);
#1891=EDGE_CURVE('',#782,#870,#728,.T.);
#1895=ADVANCED_FACE('',(#1894),#1885,.T.);
#1903=EDGE_CURVE('',#781,#782,#738,.T.);
#1908=ADVANCED_FACE('',(#1907),#1900,.T.);
#1914=EDGE_CURVE('',#777,#778,#743,.T.);
#1916=EDGE_CURVE('',#777,#778,#748,.T.);
#1924=ADVANCED_FACE('',(#1919,#1923),#1913,.T.);
#1930=EDGE_CURVE('',#878,#877,#753,.T.);
#1932=EDGE_CURVE('',#877,#778,#757,.T.);
#1935=EDGE_CURVE('',#878,#777,#761,.T.);
#1939=ADVANCED_FACE('',(#1938),#1929,.F.);
#1946=EDGE_CURVE('',#873,#877,#769,.T.);
#1949=EDGE_CURVE('',#874,#878,#765,.T.);
#1953=ADVANCED_FACE('',(#1952),#1944,.F.);
#1961=EDGE_CURVE('',#877,#878,#774,.T.);
#1966=ADVANCED_FACE('',(#1965),#1958,.F.);
#1978=ADVANCED_FACE('',(#1977),#1971,.F.);
#1979=CLOSED_SHELL('',(#986,#1004,#1019,#1032,#1047,#1062,#1079,#1094,#1107,
#1122,#1135,#1163,#1178,#1198,#1212,#1226,#1244,#1281,#1295,#1309,#1342,#1355,
#1374,#1387,#1401,#1415,#1429,#1445,#1459,#1473,#1486,#1500,#1518,#1537,#1551,
#1569,#1588,#1602,#1614,#1629,#1651,#1665,#1678,#1696,#1709,#1721,#1735,#1747,
#1759,#1771,#1785,#1802,#1815,#1827,#1840,#1852,#1867,#1880,#1895,#1908,#1924,
#1939,#1953,#1966,#1978));
#1980=MANIFOLD_SOLID_BREP('',#1979);
#1981=(LENGTH_UNIT()NAMED_UNIT(*)SI_UNIT(.MILLI.,.METRE.));
#1982=(NAMED_UNIT(*)PLANE_ANGLE_UNIT()SI_UNIT($,.RADIAN.));
#1985=(NAMED_UNIT(*)SI_UNIT($,.STERADIAN.)SOLID_ANGLE_UNIT());
#1987=(GEOMETRIC_REPRESENTATION_CONTEXT(3)GLOBAL_UNCERTAINTY_ASSIGNED_CONTEXT((
#1986))GLOBAL_UNIT_ASSIGNED_CONTEXT((#1981,#1984,#1985))REPRESENTATION_CONTEXT(
'ID1','3'));
#1988=ADVANCED_BREP_SHAPE_REPRESENTATION('',(#1980),#1987);
#1995=PRODUCT_DEFINITION('part definition','',#1994,#1991);
#1996=PRODUCT_DEFINITION_SHAPE('','SHAPE FOR PRT0004.',#1995);
#1997=SHAPE_ASPECT('','solid data associated with PRT0004',#1996,.F.);
#1998=PROPERTY_DEFINITION('',
'shape for solid data with which properties are associated',#1997);
#1999=SHAPE_REPRESENTATION('',(#1980),#1987);
#2000=SHAPE_DEFINITION_REPRESENTATION(#1998,#1999);
#2001=(LENGTH_UNIT()NAMED_UNIT(*)SI_UNIT(.MILLI.,.METRE.));
#2005=PROPERTY_DEFINITION('geometric validation property','area of PRT0004',
#1997);
#2006=REPRESENTATION('surface area',(#2004),#1987);
#2007=PROPERTY_DEFINITION_REPRESENTATION(#2005,#2006);
#2008=(LENGTH_UNIT()NAMED_UNIT(*)SI_UNIT(.MILLI.,.METRE.));
#2012=PROPERTY_DEFINITION('geometric validation property','volume of PRT0004',
#1997);
#2013=REPRESENTATION('volume',(#2011),#1987);
#2014=PROPERTY_DEFINITION_REPRESENTATION(#2012,#2013);
#2016=PROPERTY_DEFINITION('geometric validation property','centroid of PRT0004',
#1997);
#2017=REPRESENTATION('centroid',(#2015),#1987);
#2018=PROPERTY_DEFINITION_REPRESENTATION(#2016,#2017);
#2019=(LENGTH_UNIT()NAMED_UNIT(*)SI_UNIT(.MILLI.,.METRE.));
#2023=PROPERTY_DEFINITION('geometric validation property','area of PRT0004',
#1996);
#2024=REPRESENTATION('surface area',(#2022),#1987);
#2025=PROPERTY_DEFINITION_REPRESENTATION(#2023,#2024);
#2026=(LENGTH_UNIT()NAMED_UNIT(*)SI_UNIT(.MILLI.,.METRE.));
#2030=PROPERTY_DEFINITION('geometric validation property','volume of PRT0004',
#1996);
#2031=REPRESENTATION('volume',(#2029),#1987);
#2032=PROPERTY_DEFINITION_REPRESENTATION(#2030,#2031);
#2034=PROPERTY_DEFINITION('geometric validation property','centroid of PRT0004',
#1996);
#2035=REPRESENTATION('centroid',(#2033),#1987);
#2036=PROPERTY_DEFINITION_REPRESENTATION(#2034,#2035);
#2037=SHAPE_DEFINITION_REPRESENTATION(#1996,#1988);
ENDSEC;
END-ISO-10303-21;
